# General unbranded hatchback - low/mid poly
mtllib general_hatchback.mtl
o General_Hatchback
v -2.25000 -0.82000 0.38000
v 2.25000 -0.82000 0.38000
v 2.25000 0.82000 0.38000
v -2.25000 0.82000 0.38000
v -2.25000 -0.82000 0.92000
v 2.25000 -0.82000 0.92000
v 2.25000 0.82000 0.92000
v -2.25000 0.82000 0.92000
v -2.75000 -0.78000 0.72000
v -1.35000 -0.78000 0.72000
v -1.35000 0.78000 0.72000
v -2.75000 0.78000 0.72000
v -2.75000 -0.78000 1.02000
v -1.35000 -0.78000 1.02000
v -1.35000 0.78000 1.02000
v -2.75000 0.78000 1.02000
v 1.75000 -0.78000 0.52000
v 2.55000 -0.78000 0.52000
v 2.55000 0.78000 0.52000
v 1.75000 0.78000 0.52000
v 1.75000 -0.78000 0.88000
v 2.55000 -0.78000 0.88000
v 2.55000 0.78000 0.88000
v 1.75000 0.78000 0.88000
v -1.25000 -0.72000 0.88000
v 1.55000 -0.72000 0.88000
v 1.55000 0.72000 0.88000
v -1.25000 0.72000 0.88000
v -1.25000 -0.72000 1.58000
v 1.55000 -0.72000 1.58000
v 1.55000 0.72000 1.58000
v -1.25000 0.72000 1.58000
v -0.95000 -0.69000 1.48000
v 1.25000 -0.69000 1.48000
v 1.25000 0.69000 1.48000
v -0.95000 0.69000 1.48000
v -0.95000 -0.69000 1.82000
v 1.25000 -0.69000 1.82000
v 1.25000 0.69000 1.82000
v -0.95000 0.69000 1.82000
v -1.12000 -0.97000 0.43000
v -1.12826 -0.97000 0.51389
v -1.15273 -0.97000 0.59455
v -1.19247 -0.97000 0.66890
v -1.24594 -0.97000 0.73406
v -1.31110 -0.97000 0.78753
v -1.38545 -0.97000 0.82727
v -1.46611 -0.97000 0.85174
v -1.55000 -0.97000 0.86000
v -1.63389 -0.97000 0.85174
v -1.71455 -0.97000 0.82727
v -1.78890 -0.97000 0.78753
v -1.85406 -0.97000 0.73406
v -1.90753 -0.97000 0.66890
v -1.94727 -0.97000 0.59455
v -1.97174 -0.97000 0.51389
v -1.98000 -0.97000 0.43000
v -1.97174 -0.97000 0.34611
v -1.94727 -0.97000 0.26545
v -1.90753 -0.97000 0.19110
v -1.85406 -0.97000 0.12594
v -1.78890 -0.97000 0.07247
v -1.71455 -0.97000 0.03273
v -1.63389 -0.97000 0.00826
v -1.55000 -0.97000 0.00000
v -1.46611 -0.97000 0.00826
v -1.38545 -0.97000 0.03273
v -1.31110 -0.97000 0.07247
v -1.24594 -0.97000 0.12594
v -1.19247 -0.97000 0.19110
v -1.15273 -0.97000 0.26545
v -1.12826 -0.97000 0.34611
v -1.12000 -0.75000 0.43000
v -1.12826 -0.75000 0.51389
v -1.15273 -0.75000 0.59455
v -1.19247 -0.75000 0.66890
v -1.24594 -0.75000 0.73406
v -1.31110 -0.75000 0.78753
v -1.38545 -0.75000 0.82727
v -1.46611 -0.75000 0.85174
v -1.55000 -0.75000 0.86000
v -1.63389 -0.75000 0.85174
v -1.71455 -0.75000 0.82727
v -1.78890 -0.75000 0.78753
v -1.85406 -0.75000 0.73406
v -1.90753 -0.75000 0.66890
v -1.94727 -0.75000 0.59455
v -1.97174 -0.75000 0.51389
v -1.98000 -0.75000 0.43000
v -1.97174 -0.75000 0.34611
v -1.94727 -0.75000 0.26545
v -1.90753 -0.75000 0.19110
v -1.85406 -0.75000 0.12594
v -1.78890 -0.75000 0.07247
v -1.71455 -0.75000 0.03273
v -1.63389 -0.75000 0.00826
v -1.55000 -0.75000 0.00000
v -1.46611 -0.75000 0.00826
v -1.38545 -0.75000 0.03273
v -1.31110 -0.75000 0.07247
v -1.24594 -0.75000 0.12594
v -1.19247 -0.75000 0.19110
v -1.15273 -0.75000 0.26545
v -1.12826 -0.75000 0.34611
v -1.33000 -0.98500 0.43000
v -1.33750 -0.98500 0.48694
v -1.35947 -0.98500 0.54000
v -1.39444 -0.98500 0.58556
v -1.44000 -0.98500 0.62053
v -1.49306 -0.98500 0.64250
v -1.55000 -0.98500 0.65000
v -1.60694 -0.98500 0.64250
v -1.66000 -0.98500 0.62053
v -1.70556 -0.98500 0.58556
v -1.74053 -0.98500 0.54000
v -1.76250 -0.98500 0.48694
v -1.77000 -0.98500 0.43000
v -1.76250 -0.98500 0.37306
v -1.74053 -0.98500 0.32000
v -1.70556 -0.98500 0.27444
v -1.66000 -0.98500 0.23947
v -1.60694 -0.98500 0.21750
v -1.55000 -0.98500 0.21000
v -1.49306 -0.98500 0.21750
v -1.44000 -0.98500 0.23947
v -1.39444 -0.98500 0.27444
v -1.35947 -0.98500 0.32000
v -1.33750 -0.98500 0.37306
v -1.33000 -0.73500 0.43000
v -1.33750 -0.73500 0.48694
v -1.35947 -0.73500 0.54000
v -1.39444 -0.73500 0.58556
v -1.44000 -0.73500 0.62053
v -1.49306 -0.73500 0.64250
v -1.55000 -0.73500 0.65000
v -1.60694 -0.73500 0.64250
v -1.66000 -0.73500 0.62053
v -1.70556 -0.73500 0.58556
v -1.74053 -0.73500 0.54000
v -1.76250 -0.73500 0.48694
v -1.77000 -0.73500 0.43000
v -1.76250 -0.73500 0.37306
v -1.74053 -0.73500 0.32000
v -1.70556 -0.73500 0.27444
v -1.66000 -0.73500 0.23947
v -1.60694 -0.73500 0.21750
v -1.55000 -0.73500 0.21000
v -1.49306 -0.73500 0.21750
v -1.44000 -0.73500 0.23947
v -1.39444 -0.73500 0.27444
v -1.35947 -0.73500 0.32000
v -1.33750 -0.73500 0.37306
v -1.12000 0.75000 0.43000
v -1.12826 0.75000 0.51389
v -1.15273 0.75000 0.59455
v -1.19247 0.75000 0.66890
v -1.24594 0.75000 0.73406
v -1.31110 0.75000 0.78753
v -1.38545 0.75000 0.82727
v -1.46611 0.75000 0.85174
v -1.55000 0.75000 0.86000
v -1.63389 0.75000 0.85174
v -1.71455 0.75000 0.82727
v -1.78890 0.75000 0.78753
v -1.85406 0.75000 0.73406
v -1.90753 0.75000 0.66890
v -1.94727 0.75000 0.59455
v -1.97174 0.75000 0.51389
v -1.98000 0.75000 0.43000
v -1.97174 0.75000 0.34611
v -1.94727 0.75000 0.26545
v -1.90753 0.75000 0.19110
v -1.85406 0.75000 0.12594
v -1.78890 0.75000 0.07247
v -1.71455 0.75000 0.03273
v -1.63389 0.75000 0.00826
v -1.55000 0.75000 0.00000
v -1.46611 0.75000 0.00826
v -1.38545 0.75000 0.03273
v -1.31110 0.75000 0.07247
v -1.24594 0.75000 0.12594
v -1.19247 0.75000 0.19110
v -1.15273 0.75000 0.26545
v -1.12826 0.75000 0.34611
v -1.12000 0.97000 0.43000
v -1.12826 0.97000 0.51389
v -1.15273 0.97000 0.59455
v -1.19247 0.97000 0.66890
v -1.24594 0.97000 0.73406
v -1.31110 0.97000 0.78753
v -1.38545 0.97000 0.82727
v -1.46611 0.97000 0.85174
v -1.55000 0.97000 0.86000
v -1.63389 0.97000 0.85174
v -1.71455 0.97000 0.82727
v -1.78890 0.97000 0.78753
v -1.85406 0.97000 0.73406
v -1.90753 0.97000 0.66890
v -1.94727 0.97000 0.59455
v -1.97174 0.97000 0.51389
v -1.98000 0.97000 0.43000
v -1.97174 0.97000 0.34611
v -1.94727 0.97000 0.26545
v -1.90753 0.97000 0.19110
v -1.85406 0.97000 0.12594
v -1.78890 0.97000 0.07247
v -1.71455 0.97000 0.03273
v -1.63389 0.97000 0.00826
v -1.55000 0.97000 0.00000
v -1.46611 0.97000 0.00826
v -1.38545 0.97000 0.03273
v -1.31110 0.97000 0.07247
v -1.24594 0.97000 0.12594
v -1.19247 0.97000 0.19110
v -1.15273 0.97000 0.26545
v -1.12826 0.97000 0.34611
v -1.33000 0.73500 0.43000
v -1.33750 0.73500 0.48694
v -1.35947 0.73500 0.54000
v -1.39444 0.73500 0.58556
v -1.44000 0.73500 0.62053
v -1.49306 0.73500 0.64250
v -1.55000 0.73500 0.65000
v -1.60694 0.73500 0.64250
v -1.66000 0.73500 0.62053
v -1.70556 0.73500 0.58556
v -1.74053 0.73500 0.54000
v -1.76250 0.73500 0.48694
v -1.77000 0.73500 0.43000
v -1.76250 0.73500 0.37306
v -1.74053 0.73500 0.32000
v -1.70556 0.73500 0.27444
v -1.66000 0.73500 0.23947
v -1.60694 0.73500 0.21750
v -1.55000 0.73500 0.21000
v -1.49306 0.73500 0.21750
v -1.44000 0.73500 0.23947
v -1.39444 0.73500 0.27444
v -1.35947 0.73500 0.32000
v -1.33750 0.73500 0.37306
v -1.33000 0.98500 0.43000
v -1.33750 0.98500 0.48694
v -1.35947 0.98500 0.54000
v -1.39444 0.98500 0.58556
v -1.44000 0.98500 0.62053
v -1.49306 0.98500 0.64250
v -1.55000 0.98500 0.65000
v -1.60694 0.98500 0.64250
v -1.66000 0.98500 0.62053
v -1.70556 0.98500 0.58556
v -1.74053 0.98500 0.54000
v -1.76250 0.98500 0.48694
v -1.77000 0.98500 0.43000
v -1.76250 0.98500 0.37306
v -1.74053 0.98500 0.32000
v -1.70556 0.98500 0.27444
v -1.66000 0.98500 0.23947
v -1.60694 0.98500 0.21750
v -1.55000 0.98500 0.21000
v -1.49306 0.98500 0.21750
v -1.44000 0.98500 0.23947
v -1.39444 0.98500 0.27444
v -1.35947 0.98500 0.32000
v -1.33750 0.98500 0.37306
v 1.98000 -0.97000 0.43000
v 1.97174 -0.97000 0.51389
v 1.94727 -0.97000 0.59455
v 1.90753 -0.97000 0.66890
v 1.85406 -0.97000 0.73406
v 1.78890 -0.97000 0.78753
v 1.71455 -0.97000 0.82727
v 1.63389 -0.97000 0.85174
v 1.55000 -0.97000 0.86000
v 1.46611 -0.97000 0.85174
v 1.38545 -0.97000 0.82727
v 1.31110 -0.97000 0.78753
v 1.24594 -0.97000 0.73406
v 1.19247 -0.97000 0.66890
v 1.15273 -0.97000 0.59455
v 1.12826 -0.97000 0.51389
v 1.12000 -0.97000 0.43000
v 1.12826 -0.97000 0.34611
v 1.15273 -0.97000 0.26545
v 1.19247 -0.97000 0.19110
v 1.24594 -0.97000 0.12594
v 1.31110 -0.97000 0.07247
v 1.38545 -0.97000 0.03273
v 1.46611 -0.97000 0.00826
v 1.55000 -0.97000 0.00000
v 1.63389 -0.97000 0.00826
v 1.71455 -0.97000 0.03273
v 1.78890 -0.97000 0.07247
v 1.85406 -0.97000 0.12594
v 1.90753 -0.97000 0.19110
v 1.94727 -0.97000 0.26545
v 1.97174 -0.97000 0.34611
v 1.98000 -0.75000 0.43000
v 1.97174 -0.75000 0.51389
v 1.94727 -0.75000 0.59455
v 1.90753 -0.75000 0.66890
v 1.85406 -0.75000 0.73406
v 1.78890 -0.75000 0.78753
v 1.71455 -0.75000 0.82727
v 1.63389 -0.75000 0.85174
v 1.55000 -0.75000 0.86000
v 1.46611 -0.75000 0.85174
v 1.38545 -0.75000 0.82727
v 1.31110 -0.75000 0.78753
v 1.24594 -0.75000 0.73406
v 1.19247 -0.75000 0.66890
v 1.15273 -0.75000 0.59455
v 1.12826 -0.75000 0.51389
v 1.12000 -0.75000 0.43000
v 1.12826 -0.75000 0.34611
v 1.15273 -0.75000 0.26545
v 1.19247 -0.75000 0.19110
v 1.24594 -0.75000 0.12594
v 1.31110 -0.75000 0.07247
v 1.38545 -0.75000 0.03273
v 1.46611 -0.75000 0.00826
v 1.55000 -0.75000 0.00000
v 1.63389 -0.75000 0.00826
v 1.71455 -0.75000 0.03273
v 1.78890 -0.75000 0.07247
v 1.85406 -0.75000 0.12594
v 1.90753 -0.75000 0.19110
v 1.94727 -0.75000 0.26545
v 1.97174 -0.75000 0.34611
v 1.77000 -0.98500 0.43000
v 1.76250 -0.98500 0.48694
v 1.74053 -0.98500 0.54000
v 1.70556 -0.98500 0.58556
v 1.66000 -0.98500 0.62053
v 1.60694 -0.98500 0.64250
v 1.55000 -0.98500 0.65000
v 1.49306 -0.98500 0.64250
v 1.44000 -0.98500 0.62053
v 1.39444 -0.98500 0.58556
v 1.35947 -0.98500 0.54000
v 1.33750 -0.98500 0.48694
v 1.33000 -0.98500 0.43000
v 1.33750 -0.98500 0.37306
v 1.35947 -0.98500 0.32000
v 1.39444 -0.98500 0.27444
v 1.44000 -0.98500 0.23947
v 1.49306 -0.98500 0.21750
v 1.55000 -0.98500 0.21000
v 1.60694 -0.98500 0.21750
v 1.66000 -0.98500 0.23947
v 1.70556 -0.98500 0.27444
v 1.74053 -0.98500 0.32000
v 1.76250 -0.98500 0.37306
v 1.77000 -0.73500 0.43000
v 1.76250 -0.73500 0.48694
v 1.74053 -0.73500 0.54000
v 1.70556 -0.73500 0.58556
v 1.66000 -0.73500 0.62053
v 1.60694 -0.73500 0.64250
v 1.55000 -0.73500 0.65000
v 1.49306 -0.73500 0.64250
v 1.44000 -0.73500 0.62053
v 1.39444 -0.73500 0.58556
v 1.35947 -0.73500 0.54000
v 1.33750 -0.73500 0.48694
v 1.33000 -0.73500 0.43000
v 1.33750 -0.73500 0.37306
v 1.35947 -0.73500 0.32000
v 1.39444 -0.73500 0.27444
v 1.44000 -0.73500 0.23947
v 1.49306 -0.73500 0.21750
v 1.55000 -0.73500 0.21000
v 1.60694 -0.73500 0.21750
v 1.66000 -0.73500 0.23947
v 1.70556 -0.73500 0.27444
v 1.74053 -0.73500 0.32000
v 1.76250 -0.73500 0.37306
v 1.98000 0.75000 0.43000
v 1.97174 0.75000 0.51389
v 1.94727 0.75000 0.59455
v 1.90753 0.75000 0.66890
v 1.85406 0.75000 0.73406
v 1.78890 0.75000 0.78753
v 1.71455 0.75000 0.82727
v 1.63389 0.75000 0.85174
v 1.55000 0.75000 0.86000
v 1.46611 0.75000 0.85174
v 1.38545 0.75000 0.82727
v 1.31110 0.75000 0.78753
v 1.24594 0.75000 0.73406
v 1.19247 0.75000 0.66890
v 1.15273 0.75000 0.59455
v 1.12826 0.75000 0.51389
v 1.12000 0.75000 0.43000
v 1.12826 0.75000 0.34611
v 1.15273 0.75000 0.26545
v 1.19247 0.75000 0.19110
v 1.24594 0.75000 0.12594
v 1.31110 0.75000 0.07247
v 1.38545 0.75000 0.03273
v 1.46611 0.75000 0.00826
v 1.55000 0.75000 0.00000
v 1.63389 0.75000 0.00826
v 1.71455 0.75000 0.03273
v 1.78890 0.75000 0.07247
v 1.85406 0.75000 0.12594
v 1.90753 0.75000 0.19110
v 1.94727 0.75000 0.26545
v 1.97174 0.75000 0.34611
v 1.98000 0.97000 0.43000
v 1.97174 0.97000 0.51389
v 1.94727 0.97000 0.59455
v 1.90753 0.97000 0.66890
v 1.85406 0.97000 0.73406
v 1.78890 0.97000 0.78753
v 1.71455 0.97000 0.82727
v 1.63389 0.97000 0.85174
v 1.55000 0.97000 0.86000
v 1.46611 0.97000 0.85174
v 1.38545 0.97000 0.82727
v 1.31110 0.97000 0.78753
v 1.24594 0.97000 0.73406
v 1.19247 0.97000 0.66890
v 1.15273 0.97000 0.59455
v 1.12826 0.97000 0.51389
v 1.12000 0.97000 0.43000
v 1.12826 0.97000 0.34611
v 1.15273 0.97000 0.26545
v 1.19247 0.97000 0.19110
v 1.24594 0.97000 0.12594
v 1.31110 0.97000 0.07247
v 1.38545 0.97000 0.03273
v 1.46611 0.97000 0.00826
v 1.55000 0.97000 0.00000
v 1.63389 0.97000 0.00826
v 1.71455 0.97000 0.03273
v 1.78890 0.97000 0.07247
v 1.85406 0.97000 0.12594
v 1.90753 0.97000 0.19110
v 1.94727 0.97000 0.26545
v 1.97174 0.97000 0.34611
v 1.77000 0.73500 0.43000
v 1.76250 0.73500 0.48694
v 1.74053 0.73500 0.54000
v 1.70556 0.73500 0.58556
v 1.66000 0.73500 0.62053
v 1.60694 0.73500 0.64250
v 1.55000 0.73500 0.65000
v 1.49306 0.73500 0.64250
v 1.44000 0.73500 0.62053
v 1.39444 0.73500 0.58556
v 1.35947 0.73500 0.54000
v 1.33750 0.73500 0.48694
v 1.33000 0.73500 0.43000
v 1.33750 0.73500 0.37306
v 1.35947 0.73500 0.32000
v 1.39444 0.73500 0.27444
v 1.44000 0.73500 0.23947
v 1.49306 0.73500 0.21750
v 1.55000 0.73500 0.21000
v 1.60694 0.73500 0.21750
v 1.66000 0.73500 0.23947
v 1.70556 0.73500 0.27444
v 1.74053 0.73500 0.32000
v 1.76250 0.73500 0.37306
v 1.77000 0.98500 0.43000
v 1.76250 0.98500 0.48694
v 1.74053 0.98500 0.54000
v 1.70556 0.98500 0.58556
v 1.66000 0.98500 0.62053
v 1.60694 0.98500 0.64250
v 1.55000 0.98500 0.65000
v 1.49306 0.98500 0.64250
v 1.44000 0.98500 0.62053
v 1.39444 0.98500 0.58556
v 1.35947 0.98500 0.54000
v 1.33750 0.98500 0.48694
v 1.33000 0.98500 0.43000
v 1.33750 0.98500 0.37306
v 1.35947 0.98500 0.32000
v 1.39444 0.98500 0.27444
v 1.44000 0.98500 0.23947
v 1.49306 0.98500 0.21750
v 1.55000 0.98500 0.21000
v 1.60694 0.98500 0.21750
v 1.66000 0.98500 0.23947
v 1.70556 0.98500 0.27444
v 1.74053 0.98500 0.32000
v 1.76250 0.98500 0.37306
v -2.78000 -0.60000 0.76000
v -2.70000 -0.60000 0.76000
v -2.70000 -0.25000 0.76000
v -2.78000 -0.25000 0.76000
v -2.78000 -0.60000 0.90000
v -2.70000 -0.60000 0.90000
v -2.70000 -0.25000 0.90000
v -2.78000 -0.25000 0.90000
v -2.78000 0.25000 0.76000
v -2.70000 0.25000 0.76000
v -2.70000 0.60000 0.76000
v -2.78000 0.60000 0.76000
v -2.78000 0.25000 0.90000
v -2.70000 0.25000 0.90000
v -2.70000 0.60000 0.90000
v -2.78000 0.60000 0.90000
v 2.48000 -0.60000 0.65000
v 2.56000 -0.60000 0.65000
v 2.56000 -0.25000 0.65000
v 2.48000 -0.25000 0.65000
v 2.48000 -0.60000 0.84000
v 2.56000 -0.60000 0.84000
v 2.56000 -0.25000 0.84000
v 2.48000 -0.25000 0.84000
v 2.48000 0.25000 0.65000
v 2.56000 0.25000 0.65000
v 2.56000 0.60000 0.65000
v 2.48000 0.60000 0.65000
v 2.48000 0.25000 0.84000
v 2.56000 0.25000 0.84000
v 2.56000 0.60000 0.84000
v 2.48000 0.60000 0.84000
v -2.85000 -0.78000 0.40000
v -2.60000 -0.78000 0.40000
v -2.60000 0.78000 0.40000
v -2.85000 0.78000 0.40000
v -2.85000 -0.78000 0.55000
v -2.60000 -0.78000 0.55000
v -2.60000 0.78000 0.55000
v -2.85000 0.78000 0.55000
v 2.48000 -0.78000 0.42000
v 2.72000 -0.78000 0.42000
v 2.72000 0.78000 0.42000
v 2.48000 0.78000 0.42000
v 2.48000 -0.78000 0.56000
v 2.72000 -0.78000 0.56000
v 2.72000 0.78000 0.56000
v 2.48000 0.78000 0.56000
v 1.45000 -0.72000 1.70000
v 1.85000 -0.72000 1.70000
v 1.85000 0.72000 1.70000
v 1.45000 0.72000 1.70000
v 1.45000 -0.72000 1.82000
v 1.85000 -0.72000 1.82000
v 1.85000 0.72000 1.82000
v 1.45000 0.72000 1.82000
usemtl BodyPaint
f 1 2 3 4
f 5 8 7 6
f 1 5 6 2
f 2 6 7 3
f 3 7 8 4
f 5 1 4 8
f 9 10 11 12
f 13 16 15 14
f 9 13 14 10
f 10 14 15 11
f 11 15 16 12
f 13 9 12 16
f 17 18 19 20
f 21 24 23 22
f 17 21 22 18
f 18 22 23 19
f 19 23 24 20
f 21 17 20 24
f 25 26 27 28
f 29 32 31 30
f 25 29 30 26
f 26 30 31 27
f 27 31 32 28
f 29 25 28 32
f 33 34 35 36
f 37 40 39 38
f 33 37 38 34
f 34 38 39 35
f 35 39 40 36
f 37 33 36 40
f 41 42 74 73
f 42 43 75 74
f 43 44 76 75
f 44 45 77 76
f 45 46 78 77
f 46 47 79 78
f 47 48 80 79
f 48 49 81 80
f 49 50 82 81
f 50 51 83 82
f 51 52 84 83
f 52 53 85 84
f 53 54 86 85
f 54 55 87 86
f 55 56 88 87
f 56 57 89 88
f 57 58 90 89
f 58 59 91 90
f 59 60 92 91
f 60 61 93 92
f 61 62 94 93
f 62 63 95 94
f 63 64 96 95
f 64 65 97 96
f 65 66 98 97
f 66 67 99 98
f 67 68 100 99
f 68 69 101 100
f 69 70 102 101
f 70 71 103 102
f 71 72 104 103
f 72 41 73 104
f 72 71 70 69 68 67 66 65 64 63 62 61 60 59 58 57 56 55 54 53 52 51 50 49 48 47 46 45 44 43 42 41
f 73 74 75 76 77 78 79 80 81 82 83 84 85 86 87 88 89 90 91 92 93 94 95 96 97 98 99 100 101 102 103 104
f 105 106 130 129
f 106 107 131 130
f 107 108 132 131
f 108 109 133 132
f 109 110 134 133
f 110 111 135 134
f 111 112 136 135
f 112 113 137 136
f 113 114 138 137
f 114 115 139 138
f 115 116 140 139
f 116 117 141 140
f 117 118 142 141
f 118 119 143 142
f 119 120 144 143
f 120 121 145 144
f 121 122 146 145
f 122 123 147 146
f 123 124 148 147
f 124 125 149 148
f 125 126 150 149
f 126 127 151 150
f 127 128 152 151
f 128 105 129 152
f 128 127 126 125 124 123 122 121 120 119 118 117 116 115 114 113 112 111 110 109 108 107 106 105
f 129 130 131 132 133 134 135 136 137 138 139 140 141 142 143 144 145 146 147 148 149 150 151 152
f 153 154 186 185
f 154 155 187 186
f 155 156 188 187
f 156 157 189 188
f 157 158 190 189
f 158 159 191 190
f 159 160 192 191
f 160 161 193 192
f 161 162 194 193
f 162 163 195 194
f 163 164 196 195
f 164 165 197 196
f 165 166 198 197
f 166 167 199 198
f 167 168 200 199
f 168 169 201 200
f 169 170 202 201
f 170 171 203 202
f 171 172 204 203
f 172 173 205 204
f 173 174 206 205
f 174 175 207 206
f 175 176 208 207
f 176 177 209 208
f 177 178 210 209
f 178 179 211 210
f 179 180 212 211
f 180 181 213 212
f 181 182 214 213
f 182 183 215 214
f 183 184 216 215
f 184 153 185 216
f 184 183 182 181 180 179 178 177 176 175 174 173 172 171 170 169 168 167 166 165 164 163 162 161 160 159 158 157 156 155 154 153
f 185 186 187 188 189 190 191 192 193 194 195 196 197 198 199 200 201 202 203 204 205 206 207 208 209 210 211 212 213 214 215 216
f 217 218 242 241
f 218 219 243 242
f 219 220 244 243
f 220 221 245 244
f 221 222 246 245
f 222 223 247 246
f 223 224 248 247
f 224 225 249 248
f 225 226 250 249
f 226 227 251 250
f 227 228 252 251
f 228 229 253 252
f 229 230 254 253
f 230 231 255 254
f 231 232 256 255
f 232 233 257 256
f 233 234 258 257
f 234 235 259 258
f 235 236 260 259
f 236 237 261 260
f 237 238 262 261
f 238 239 263 262
f 239 240 264 263
f 240 217 241 264
f 240 239 238 237 236 235 234 233 232 231 230 229 228 227 226 225 224 223 222 221 220 219 218 217
f 241 242 243 244 245 246 247 248 249 250 251 252 253 254 255 256 257 258 259 260 261 262 263 264
f 265 266 298 297
f 266 267 299 298
f 267 268 300 299
f 268 269 301 300
f 269 270 302 301
f 270 271 303 302
f 271 272 304 303
f 272 273 305 304
f 273 274 306 305
f 274 275 307 306
f 275 276 308 307
f 276 277 309 308
f 277 278 310 309
f 278 279 311 310
f 279 280 312 311
f 280 281 313 312
f 281 282 314 313
f 282 283 315 314
f 283 284 316 315
f 284 285 317 316
f 285 286 318 317
f 286 287 319 318
f 287 288 320 319
f 288 289 321 320
f 289 290 322 321
f 290 291 323 322
f 291 292 324 323
f 292 293 325 324
f 293 294 326 325
f 294 295 327 326
f 295 296 328 327
f 296 265 297 328
f 296 295 294 293 292 291 290 289 288 287 286 285 284 283 282 281 280 279 278 277 276 275 274 273 272 271 270 269 268 267 266 265
f 297 298 299 300 301 302 303 304 305 306 307 308 309 310 311 312 313 314 315 316 317 318 319 320 321 322 323 324 325 326 327 328
f 329 330 354 353
f 330 331 355 354
f 331 332 356 355
f 332 333 357 356
f 333 334 358 357
f 334 335 359 358
f 335 336 360 359
f 336 337 361 360
f 337 338 362 361
f 338 339 363 362
f 339 340 364 363
f 340 341 365 364
f 341 342 366 365
f 342 343 367 366
f 343 344 368 367
f 344 345 369 368
f 345 346 370 369
f 346 347 371 370
f 347 348 372 371
f 348 349 373 372
f 349 350 374 373
f 350 351 375 374
f 351 352 376 375
f 352 329 353 376
f 352 351 350 349 348 347 346 345 344 343 342 341 340 339 338 337 336 335 334 333 332 331 330 329
f 353 354 355 356 357 358 359 360 361 362 363 364 365 366 367 368 369 370 371 372 373 374 375 376
f 377 378 410 409
f 378 379 411 410
f 379 380 412 411
f 380 381 413 412
f 381 382 414 413
f 382 383 415 414
f 383 384 416 415
f 384 385 417 416
f 385 386 418 417
f 386 387 419 418
f 387 388 420 419
f 388 389 421 420
f 389 390 422 421
f 390 391 423 422
f 391 392 424 423
f 392 393 425 424
f 393 394 426 425
f 394 395 427 426
f 395 396 428 427
f 396 397 429 428
f 397 398 430 429
f 398 399 431 430
f 399 400 432 431
f 400 401 433 432
f 401 402 434 433
f 402 403 435 434
f 403 404 436 435
f 404 405 437 436
f 405 406 438 437
f 406 407 439 438
f 407 408 440 439
f 408 377 409 440
f 408 407 406 405 404 403 402 401 400 399 398 397 396 395 394 393 392 391 390 389 388 387 386 385 384 383 382 381 380 379 378 377
f 409 410 411 412 413 414 415 416 417 418 419 420 421 422 423 424 425 426 427 428 429 430 431 432 433 434 435 436 437 438 439 440
f 441 442 466 465
f 442 443 467 466
f 443 444 468 467
f 444 445 469 468
f 445 446 470 469
f 446 447 471 470
f 447 448 472 471
f 448 449 473 472
f 449 450 474 473
f 450 451 475 474
f 451 452 476 475
f 452 453 477 476
f 453 454 478 477
f 454 455 479 478
f 455 456 480 479
f 456 457 481 480
f 457 458 482 481
f 458 459 483 482
f 459 460 484 483
f 460 461 485 484
f 461 462 486 485
f 462 463 487 486
f 463 464 488 487
f 464 441 465 488
f 464 463 462 461 460 459 458 457 456 455 454 453 452 451 450 449 448 447 446 445 444 443 442 441
f 465 466 467 468 469 470 471 472 473 474 475 476 477 478 479 480 481 482 483 484 485 486 487 488
f 489 490 491 492
f 493 496 495 494
f 489 493 494 490
f 490 494 495 491
f 491 495 496 492
f 493 489 492 496
f 497 498 499 500
f 501 504 503 502
f 497 501 502 498
f 498 502 503 499
f 499 503 504 500
f 501 497 500 504
f 505 506 507 508
f 509 512 511 510
f 505 509 510 506
f 506 510 511 507
f 507 511 512 508
f 509 505 508 512
f 513 514 515 516
f 517 520 519 518
f 513 517 518 514
f 514 518 519 515
f 515 519 520 516
f 517 513 516 520
f 521 522 523 524
f 525 528 527 526
f 521 525 526 522
f 522 526 527 523
f 523 527 528 524
f 525 521 524 528
f 529 530 531 532
f 533 536 535 534
f 529 533 534 530
f 530 534 535 531
f 531 535 536 532
f 533 529 532 536
f 537 538 539 540
f 541 544 543 542
f 537 541 542 538
f 538 542 543 539
f 539 543 544 540
f 541 537 540 544
