# Generic retro-modern compact hatchback
# Solid matte white clay / resin style
mtllib retro_modern_hatchback.mtl
o RetroModern_Hatchback
usemtl WhiteClay
v -2.45000 -0.82000 0.45000
v 2.35000 -0.82000 0.45000
v 2.35000 0.82000 0.45000
v -2.45000 0.82000 0.45000
v -2.45000 -0.82000 0.95000
v 2.35000 -0.82000 0.95000
v 2.35000 0.82000 0.95000
v -2.45000 0.82000 0.95000
v -2.60000 -0.76000 0.58000
v 2.48000 -0.76000 0.58000
v 2.48000 0.76000 0.58000
v -2.60000 0.76000 0.58000
v -2.60000 -0.76000 0.88000
v 2.48000 -0.76000 0.88000
v 2.48000 0.76000 0.88000
v -2.60000 0.76000 0.88000
v -2.35000 -0.80000 0.82000
v 2.25000 -0.80000 0.82000
v 2.25000 0.80000 0.82000
v -2.35000 0.80000 0.82000
v -2.35000 -0.80000 1.16000
v 2.25000 -0.80000 1.16000
v 2.25000 0.80000 1.16000
v -2.35000 0.80000 1.16000
v -2.65000 -0.73000 0.92000
v -1.35000 -0.73000 0.92000
v -1.35000 0.73000 0.92000
v -2.65000 0.73000 0.92000
v -2.65000 -0.73000 1.22000
v -1.35000 -0.73000 1.22000
v -1.35000 0.73000 1.22000
v -2.65000 0.73000 1.22000
v 1.70000 -0.73000 0.75000
v 2.50000 -0.73000 0.75000
v 2.50000 0.73000 0.75000
v 1.70000 0.73000 0.75000
v 1.70000 -0.73000 1.25000
v 2.50000 -0.73000 1.25000
v 2.50000 0.73000 1.25000
v 1.70000 0.73000 1.25000
v -1.30000 -0.68000 1.12000
v 1.55000 -0.68000 1.12000
v 1.55000 0.68000 1.12000
v -1.30000 0.68000 1.12000
v -1.30000 -0.68000 1.65000
v 1.55000 -0.68000 1.65000
v 1.55000 0.68000 1.65000
v -1.30000 0.68000 1.65000
v -1.05000 -0.66000 1.58000
v 1.28000 -0.66000 1.58000
v 1.28000 0.66000 1.58000
v -1.05000 0.66000 1.58000
v -1.05000 -0.66000 1.82000
v 1.28000 -0.66000 1.82000
v 1.28000 0.66000 1.82000
v -1.05000 0.66000 1.82000
v -1.15000 -0.70000 1.78000
v 1.38000 -0.70000 1.78000
v 1.38000 0.70000 1.78000
v -1.15000 0.70000 1.78000
v -1.15000 -0.70000 1.88000
v 1.38000 -0.70000 1.88000
v 1.38000 0.70000 1.88000
v -1.15000 0.70000 1.88000
v -1.11000 -0.93000 0.55000
v -1.11000 -0.75000 0.55000
v -1.11845 -0.93000 0.63584
v -1.11845 -0.75000 0.63584
v -1.14349 -0.93000 0.71838
v -1.14349 -0.75000 0.71838
v -1.18415 -0.93000 0.79445
v -1.18415 -0.75000 0.79445
v -1.23887 -0.93000 0.86113
v -1.23887 -0.75000 0.86113
v -1.30555 -0.93000 0.91585
v -1.30555 -0.75000 0.91585
v -1.38162 -0.93000 0.95651
v -1.38162 -0.75000 0.95651
v -1.46416 -0.93000 0.98155
v -1.46416 -0.75000 0.98155
v -1.55000 -0.93000 0.99000
v -1.55000 -0.75000 0.99000
v -1.63584 -0.93000 0.98155
v -1.63584 -0.75000 0.98155
v -1.71838 -0.93000 0.95651
v -1.71838 -0.75000 0.95651
v -1.79445 -0.93000 0.91585
v -1.79445 -0.75000 0.91585
v -1.86113 -0.93000 0.86113
v -1.86113 -0.75000 0.86113
v -1.91585 -0.93000 0.79445
v -1.91585 -0.75000 0.79445
v -1.95651 -0.93000 0.71838
v -1.95651 -0.75000 0.71838
v -1.98155 -0.93000 0.63584
v -1.98155 -0.75000 0.63584
v -1.99000 -0.93000 0.55000
v -1.99000 -0.75000 0.55000
v -1.98155 -0.93000 0.46416
v -1.98155 -0.75000 0.46416
v -1.95651 -0.93000 0.38162
v -1.95651 -0.75000 0.38162
v -1.91585 -0.93000 0.30555
v -1.91585 -0.75000 0.30555
v -1.86113 -0.93000 0.23887
v -1.86113 -0.75000 0.23887
v -1.79445 -0.93000 0.18415
v -1.79445 -0.75000 0.18415
v -1.71838 -0.93000 0.14349
v -1.71838 -0.75000 0.14349
v -1.63584 -0.93000 0.11845
v -1.63584 -0.75000 0.11845
v -1.55000 -0.93000 0.11000
v -1.55000 -0.75000 0.11000
v -1.46416 -0.93000 0.11845
v -1.46416 -0.75000 0.11845
v -1.38162 -0.93000 0.14349
v -1.38162 -0.75000 0.14349
v -1.30555 -0.93000 0.18415
v -1.30555 -0.75000 0.18415
v -1.23887 -0.93000 0.23887
v -1.23887 -0.75000 0.23887
v -1.18415 -0.93000 0.30555
v -1.18415 -0.75000 0.30555
v -1.14349 -0.93000 0.38162
v -1.14349 -0.75000 0.38162
v -1.11845 -0.93000 0.46416
v -1.11845 -0.75000 0.46416
v -1.25000 -0.94000 0.55000
v -1.39000 -0.94000 0.55000
v -1.25000 -0.74000 0.55000
v -1.39000 -0.74000 0.55000
v -1.26022 -0.94000 0.62765
v -1.39545 -0.94000 0.59141
v -1.26022 -0.74000 0.62765
v -1.39545 -0.74000 0.59141
v -1.29019 -0.94000 0.70000
v -1.41144 -0.94000 0.63000
v -1.29019 -0.74000 0.70000
v -1.41144 -0.74000 0.63000
v -1.33787 -0.94000 0.76213
v -1.43686 -0.94000 0.66314
v -1.33787 -0.74000 0.76213
v -1.43686 -0.74000 0.66314
v -1.40000 -0.94000 0.80981
v -1.47000 -0.94000 0.68856
v -1.40000 -0.74000 0.80981
v -1.47000 -0.74000 0.68856
v -1.47235 -0.94000 0.83978
v -1.50859 -0.94000 0.70455
v -1.47235 -0.74000 0.83978
v -1.50859 -0.74000 0.70455
v -1.55000 -0.94000 0.85000
v -1.55000 -0.94000 0.71000
v -1.55000 -0.74000 0.85000
v -1.55000 -0.74000 0.71000
v -1.62765 -0.94000 0.83978
v -1.59141 -0.94000 0.70455
v -1.62765 -0.74000 0.83978
v -1.59141 -0.74000 0.70455
v -1.70000 -0.94000 0.80981
v -1.63000 -0.94000 0.68856
v -1.70000 -0.74000 0.80981
v -1.63000 -0.74000 0.68856
v -1.76213 -0.94000 0.76213
v -1.66314 -0.94000 0.66314
v -1.76213 -0.74000 0.76213
v -1.66314 -0.74000 0.66314
v -1.80981 -0.94000 0.70000
v -1.68856 -0.94000 0.63000
v -1.80981 -0.74000 0.70000
v -1.68856 -0.74000 0.63000
v -1.83978 -0.94000 0.62765
v -1.70455 -0.94000 0.59141
v -1.83978 -0.74000 0.62765
v -1.70455 -0.74000 0.59141
v -1.85000 -0.94000 0.55000
v -1.71000 -0.94000 0.55000
v -1.85000 -0.74000 0.55000
v -1.71000 -0.74000 0.55000
v -1.83978 -0.94000 0.47235
v -1.70455 -0.94000 0.50859
v -1.83978 -0.74000 0.47235
v -1.70455 -0.74000 0.50859
v -1.80981 -0.94000 0.40000
v -1.68856 -0.94000 0.47000
v -1.80981 -0.74000 0.40000
v -1.68856 -0.74000 0.47000
v -1.76213 -0.94000 0.33787
v -1.66314 -0.94000 0.43686
v -1.76213 -0.74000 0.33787
v -1.66314 -0.74000 0.43686
v -1.70000 -0.94000 0.29019
v -1.63000 -0.94000 0.41144
v -1.70000 -0.74000 0.29019
v -1.63000 -0.74000 0.41144
v -1.62765 -0.94000 0.26022
v -1.59141 -0.94000 0.39545
v -1.62765 -0.74000 0.26022
v -1.59141 -0.74000 0.39545
v -1.55000 -0.94000 0.25000
v -1.55000 -0.94000 0.39000
v -1.55000 -0.74000 0.25000
v -1.55000 -0.74000 0.39000
v -1.47235 -0.94000 0.26022
v -1.50859 -0.94000 0.39545
v -1.47235 -0.74000 0.26022
v -1.50859 -0.74000 0.39545
v -1.40000 -0.94000 0.29019
v -1.47000 -0.94000 0.41144
v -1.40000 -0.74000 0.29019
v -1.47000 -0.74000 0.41144
v -1.33787 -0.94000 0.33787
v -1.43686 -0.94000 0.43686
v -1.33787 -0.74000 0.33787
v -1.43686 -0.74000 0.43686
v -1.29019 -0.94000 0.40000
v -1.41144 -0.94000 0.47000
v -1.29019 -0.74000 0.40000
v -1.41144 -0.74000 0.47000
v -1.26022 -0.94000 0.47235
v -1.39545 -0.94000 0.50859
v -1.26022 -0.74000 0.47235
v -1.39545 -0.74000 0.50859
v -1.11000 0.75000 0.55000
v -1.11000 0.93000 0.55000
v -1.11845 0.75000 0.63584
v -1.11845 0.93000 0.63584
v -1.14349 0.75000 0.71838
v -1.14349 0.93000 0.71838
v -1.18415 0.75000 0.79445
v -1.18415 0.93000 0.79445
v -1.23887 0.75000 0.86113
v -1.23887 0.93000 0.86113
v -1.30555 0.75000 0.91585
v -1.30555 0.93000 0.91585
v -1.38162 0.75000 0.95651
v -1.38162 0.93000 0.95651
v -1.46416 0.75000 0.98155
v -1.46416 0.93000 0.98155
v -1.55000 0.75000 0.99000
v -1.55000 0.93000 0.99000
v -1.63584 0.75000 0.98155
v -1.63584 0.93000 0.98155
v -1.71838 0.75000 0.95651
v -1.71838 0.93000 0.95651
v -1.79445 0.75000 0.91585
v -1.79445 0.93000 0.91585
v -1.86113 0.75000 0.86113
v -1.86113 0.93000 0.86113
v -1.91585 0.75000 0.79445
v -1.91585 0.93000 0.79445
v -1.95651 0.75000 0.71838
v -1.95651 0.93000 0.71838
v -1.98155 0.75000 0.63584
v -1.98155 0.93000 0.63584
v -1.99000 0.75000 0.55000
v -1.99000 0.93000 0.55000
v -1.98155 0.75000 0.46416
v -1.98155 0.93000 0.46416
v -1.95651 0.75000 0.38162
v -1.95651 0.93000 0.38162
v -1.91585 0.75000 0.30555
v -1.91585 0.93000 0.30555
v -1.86113 0.75000 0.23887
v -1.86113 0.93000 0.23887
v -1.79445 0.75000 0.18415
v -1.79445 0.93000 0.18415
v -1.71838 0.75000 0.14349
v -1.71838 0.93000 0.14349
v -1.63584 0.75000 0.11845
v -1.63584 0.93000 0.11845
v -1.55000 0.75000 0.11000
v -1.55000 0.93000 0.11000
v -1.46416 0.75000 0.11845
v -1.46416 0.93000 0.11845
v -1.38162 0.75000 0.14349
v -1.38162 0.93000 0.14349
v -1.30555 0.75000 0.18415
v -1.30555 0.93000 0.18415
v -1.23887 0.75000 0.23887
v -1.23887 0.93000 0.23887
v -1.18415 0.75000 0.30555
v -1.18415 0.93000 0.30555
v -1.14349 0.75000 0.38162
v -1.14349 0.93000 0.38162
v -1.11845 0.75000 0.46416
v -1.11845 0.93000 0.46416
v -1.25000 0.74000 0.55000
v -1.39000 0.74000 0.55000
v -1.25000 0.94000 0.55000
v -1.39000 0.94000 0.55000
v -1.26022 0.74000 0.62765
v -1.39545 0.74000 0.59141
v -1.26022 0.94000 0.62765
v -1.39545 0.94000 0.59141
v -1.29019 0.74000 0.70000
v -1.41144 0.74000 0.63000
v -1.29019 0.94000 0.70000
v -1.41144 0.94000 0.63000
v -1.33787 0.74000 0.76213
v -1.43686 0.74000 0.66314
v -1.33787 0.94000 0.76213
v -1.43686 0.94000 0.66314
v -1.40000 0.74000 0.80981
v -1.47000 0.74000 0.68856
v -1.40000 0.94000 0.80981
v -1.47000 0.94000 0.68856
v -1.47235 0.74000 0.83978
v -1.50859 0.74000 0.70455
v -1.47235 0.94000 0.83978
v -1.50859 0.94000 0.70455
v -1.55000 0.74000 0.85000
v -1.55000 0.74000 0.71000
v -1.55000 0.94000 0.85000
v -1.55000 0.94000 0.71000
v -1.62765 0.74000 0.83978
v -1.59141 0.74000 0.70455
v -1.62765 0.94000 0.83978
v -1.59141 0.94000 0.70455
v -1.70000 0.74000 0.80981
v -1.63000 0.74000 0.68856
v -1.70000 0.94000 0.80981
v -1.63000 0.94000 0.68856
v -1.76213 0.74000 0.76213
v -1.66314 0.74000 0.66314
v -1.76213 0.94000 0.76213
v -1.66314 0.94000 0.66314
v -1.80981 0.74000 0.70000
v -1.68856 0.74000 0.63000
v -1.80981 0.94000 0.70000
v -1.68856 0.94000 0.63000
v -1.83978 0.74000 0.62765
v -1.70455 0.74000 0.59141
v -1.83978 0.94000 0.62765
v -1.70455 0.94000 0.59141
v -1.85000 0.74000 0.55000
v -1.71000 0.74000 0.55000
v -1.85000 0.94000 0.55000
v -1.71000 0.94000 0.55000
v -1.83978 0.74000 0.47235
v -1.70455 0.74000 0.50859
v -1.83978 0.94000 0.47235
v -1.70455 0.94000 0.50859
v -1.80981 0.74000 0.40000
v -1.68856 0.74000 0.47000
v -1.80981 0.94000 0.40000
v -1.68856 0.94000 0.47000
v -1.76213 0.74000 0.33787
v -1.66314 0.74000 0.43686
v -1.76213 0.94000 0.33787
v -1.66314 0.94000 0.43686
v -1.70000 0.74000 0.29019
v -1.63000 0.74000 0.41144
v -1.70000 0.94000 0.29019
v -1.63000 0.94000 0.41144
v -1.62765 0.74000 0.26022
v -1.59141 0.74000 0.39545
v -1.62765 0.94000 0.26022
v -1.59141 0.94000 0.39545
v -1.55000 0.74000 0.25000
v -1.55000 0.74000 0.39000
v -1.55000 0.94000 0.25000
v -1.55000 0.94000 0.39000
v -1.47235 0.74000 0.26022
v -1.50859 0.74000 0.39545
v -1.47235 0.94000 0.26022
v -1.50859 0.94000 0.39545
v -1.40000 0.74000 0.29019
v -1.47000 0.74000 0.41144
v -1.40000 0.94000 0.29019
v -1.47000 0.94000 0.41144
v -1.33787 0.74000 0.33787
v -1.43686 0.74000 0.43686
v -1.33787 0.94000 0.33787
v -1.43686 0.94000 0.43686
v -1.29019 0.74000 0.40000
v -1.41144 0.74000 0.47000
v -1.29019 0.94000 0.40000
v -1.41144 0.94000 0.47000
v -1.26022 0.74000 0.47235
v -1.39545 0.74000 0.50859
v -1.26022 0.94000 0.47235
v -1.39545 0.94000 0.50859
v 1.99000 -0.93000 0.55000
v 1.99000 -0.75000 0.55000
v 1.98155 -0.93000 0.63584
v 1.98155 -0.75000 0.63584
v 1.95651 -0.93000 0.71838
v 1.95651 -0.75000 0.71838
v 1.91585 -0.93000 0.79445
v 1.91585 -0.75000 0.79445
v 1.86113 -0.93000 0.86113
v 1.86113 -0.75000 0.86113
v 1.79445 -0.93000 0.91585
v 1.79445 -0.75000 0.91585
v 1.71838 -0.93000 0.95651
v 1.71838 -0.75000 0.95651
v 1.63584 -0.93000 0.98155
v 1.63584 -0.75000 0.98155
v 1.55000 -0.93000 0.99000
v 1.55000 -0.75000 0.99000
v 1.46416 -0.93000 0.98155
v 1.46416 -0.75000 0.98155
v 1.38162 -0.93000 0.95651
v 1.38162 -0.75000 0.95651
v 1.30555 -0.93000 0.91585
v 1.30555 -0.75000 0.91585
v 1.23887 -0.93000 0.86113
v 1.23887 -0.75000 0.86113
v 1.18415 -0.93000 0.79445
v 1.18415 -0.75000 0.79445
v 1.14349 -0.93000 0.71838
v 1.14349 -0.75000 0.71838
v 1.11845 -0.93000 0.63584
v 1.11845 -0.75000 0.63584
v 1.11000 -0.93000 0.55000
v 1.11000 -0.75000 0.55000
v 1.11845 -0.93000 0.46416
v 1.11845 -0.75000 0.46416
v 1.14349 -0.93000 0.38162
v 1.14349 -0.75000 0.38162
v 1.18415 -0.93000 0.30555
v 1.18415 -0.75000 0.30555
v 1.23887 -0.93000 0.23887
v 1.23887 -0.75000 0.23887
v 1.30555 -0.93000 0.18415
v 1.30555 -0.75000 0.18415
v 1.38162 -0.93000 0.14349
v 1.38162 -0.75000 0.14349
v 1.46416 -0.93000 0.11845
v 1.46416 -0.75000 0.11845
v 1.55000 -0.93000 0.11000
v 1.55000 -0.75000 0.11000
v 1.63584 -0.93000 0.11845
v 1.63584 -0.75000 0.11845
v 1.71838 -0.93000 0.14349
v 1.71838 -0.75000 0.14349
v 1.79445 -0.93000 0.18415
v 1.79445 -0.75000 0.18415
v 1.86113 -0.93000 0.23887
v 1.86113 -0.75000 0.23887
v 1.91585 -0.93000 0.30555
v 1.91585 -0.75000 0.30555
v 1.95651 -0.93000 0.38162
v 1.95651 -0.75000 0.38162
v 1.98155 -0.93000 0.46416
v 1.98155 -0.75000 0.46416
v 1.85000 -0.94000 0.55000
v 1.71000 -0.94000 0.55000
v 1.85000 -0.74000 0.55000
v 1.71000 -0.74000 0.55000
v 1.83978 -0.94000 0.62765
v 1.70455 -0.94000 0.59141
v 1.83978 -0.74000 0.62765
v 1.70455 -0.74000 0.59141
v 1.80981 -0.94000 0.70000
v 1.68856 -0.94000 0.63000
v 1.80981 -0.74000 0.70000
v 1.68856 -0.74000 0.63000
v 1.76213 -0.94000 0.76213
v 1.66314 -0.94000 0.66314
v 1.76213 -0.74000 0.76213
v 1.66314 -0.74000 0.66314
v 1.70000 -0.94000 0.80981
v 1.63000 -0.94000 0.68856
v 1.70000 -0.74000 0.80981
v 1.63000 -0.74000 0.68856
v 1.62765 -0.94000 0.83978
v 1.59141 -0.94000 0.70455
v 1.62765 -0.74000 0.83978
v 1.59141 -0.74000 0.70455
v 1.55000 -0.94000 0.85000
v 1.55000 -0.94000 0.71000
v 1.55000 -0.74000 0.85000
v 1.55000 -0.74000 0.71000
v 1.47235 -0.94000 0.83978
v 1.50859 -0.94000 0.70455
v 1.47235 -0.74000 0.83978
v 1.50859 -0.74000 0.70455
v 1.40000 -0.94000 0.80981
v 1.47000 -0.94000 0.68856
v 1.40000 -0.74000 0.80981
v 1.47000 -0.74000 0.68856
v 1.33787 -0.94000 0.76213
v 1.43686 -0.94000 0.66314
v 1.33787 -0.74000 0.76213
v 1.43686 -0.74000 0.66314
v 1.29019 -0.94000 0.70000
v 1.41144 -0.94000 0.63000
v 1.29019 -0.74000 0.70000
v 1.41144 -0.74000 0.63000
v 1.26022 -0.94000 0.62765
v 1.39545 -0.94000 0.59141
v 1.26022 -0.74000 0.62765
v 1.39545 -0.74000 0.59141
v 1.25000 -0.94000 0.55000
v 1.39000 -0.94000 0.55000
v 1.25000 -0.74000 0.55000
v 1.39000 -0.74000 0.55000
v 1.26022 -0.94000 0.47235
v 1.39545 -0.94000 0.50859
v 1.26022 -0.74000 0.47235
v 1.39545 -0.74000 0.50859
v 1.29019 -0.94000 0.40000
v 1.41144 -0.94000 0.47000
v 1.29019 -0.74000 0.40000
v 1.41144 -0.74000 0.47000
v 1.33787 -0.94000 0.33787
v 1.43686 -0.94000 0.43686
v 1.33787 -0.74000 0.33787
v 1.43686 -0.74000 0.43686
v 1.40000 -0.94000 0.29019
v 1.47000 -0.94000 0.41144
v 1.40000 -0.74000 0.29019
v 1.47000 -0.74000 0.41144
v 1.47235 -0.94000 0.26022
v 1.50859 -0.94000 0.39545
v 1.47235 -0.74000 0.26022
v 1.50859 -0.74000 0.39545
v 1.55000 -0.94000 0.25000
v 1.55000 -0.94000 0.39000
v 1.55000 -0.74000 0.25000
v 1.55000 -0.74000 0.39000
v 1.62765 -0.94000 0.26022
v 1.59141 -0.94000 0.39545
v 1.62765 -0.74000 0.26022
v 1.59141 -0.74000 0.39545
v 1.70000 -0.94000 0.29019
v 1.63000 -0.94000 0.41144
v 1.70000 -0.74000 0.29019
v 1.63000 -0.74000 0.41144
v 1.76213 -0.94000 0.33787
v 1.66314 -0.94000 0.43686
v 1.76213 -0.74000 0.33787
v 1.66314 -0.74000 0.43686
v 1.80981 -0.94000 0.40000
v 1.68856 -0.94000 0.47000
v 1.80981 -0.74000 0.40000
v 1.68856 -0.74000 0.47000
v 1.83978 -0.94000 0.47235
v 1.70455 -0.94000 0.50859
v 1.83978 -0.74000 0.47235
v 1.70455 -0.74000 0.50859
v 1.99000 0.75000 0.55000
v 1.99000 0.93000 0.55000
v 1.98155 0.75000 0.63584
v 1.98155 0.93000 0.63584
v 1.95651 0.75000 0.71838
v 1.95651 0.93000 0.71838
v 1.91585 0.75000 0.79445
v 1.91585 0.93000 0.79445
v 1.86113 0.75000 0.86113
v 1.86113 0.93000 0.86113
v 1.79445 0.75000 0.91585
v 1.79445 0.93000 0.91585
v 1.71838 0.75000 0.95651
v 1.71838 0.93000 0.95651
v 1.63584 0.75000 0.98155
v 1.63584 0.93000 0.98155
v 1.55000 0.75000 0.99000
v 1.55000 0.93000 0.99000
v 1.46416 0.75000 0.98155
v 1.46416 0.93000 0.98155
v 1.38162 0.75000 0.95651
v 1.38162 0.93000 0.95651
v 1.30555 0.75000 0.91585
v 1.30555 0.93000 0.91585
v 1.23887 0.75000 0.86113
v 1.23887 0.93000 0.86113
v 1.18415 0.75000 0.79445
v 1.18415 0.93000 0.79445
v 1.14349 0.75000 0.71838
v 1.14349 0.93000 0.71838
v 1.11845 0.75000 0.63584
v 1.11845 0.93000 0.63584
v 1.11000 0.75000 0.55000
v 1.11000 0.93000 0.55000
v 1.11845 0.75000 0.46416
v 1.11845 0.93000 0.46416
v 1.14349 0.75000 0.38162
v 1.14349 0.93000 0.38162
v 1.18415 0.75000 0.30555
v 1.18415 0.93000 0.30555
v 1.23887 0.75000 0.23887
v 1.23887 0.93000 0.23887
v 1.30555 0.75000 0.18415
v 1.30555 0.93000 0.18415
v 1.38162 0.75000 0.14349
v 1.38162 0.93000 0.14349
v 1.46416 0.75000 0.11845
v 1.46416 0.93000 0.11845
v 1.55000 0.75000 0.11000
v 1.55000 0.93000 0.11000
v 1.63584 0.75000 0.11845
v 1.63584 0.93000 0.11845
v 1.71838 0.75000 0.14349
v 1.71838 0.93000 0.14349
v 1.79445 0.75000 0.18415
v 1.79445 0.93000 0.18415
v 1.86113 0.75000 0.23887
v 1.86113 0.93000 0.23887
v 1.91585 0.75000 0.30555
v 1.91585 0.93000 0.30555
v 1.95651 0.75000 0.38162
v 1.95651 0.93000 0.38162
v 1.98155 0.75000 0.46416
v 1.98155 0.93000 0.46416
v 1.85000 0.74000 0.55000
v 1.71000 0.74000 0.55000
v 1.85000 0.94000 0.55000
v 1.71000 0.94000 0.55000
v 1.83978 0.74000 0.62765
v 1.70455 0.74000 0.59141
v 1.83978 0.94000 0.62765
v 1.70455 0.94000 0.59141
v 1.80981 0.74000 0.70000
v 1.68856 0.74000 0.63000
v 1.80981 0.94000 0.70000
v 1.68856 0.94000 0.63000
v 1.76213 0.74000 0.76213
v 1.66314 0.74000 0.66314
v 1.76213 0.94000 0.76213
v 1.66314 0.94000 0.66314
v 1.70000 0.74000 0.80981
v 1.63000 0.74000 0.68856
v 1.70000 0.94000 0.80981
v 1.63000 0.94000 0.68856
v 1.62765 0.74000 0.83978
v 1.59141 0.74000 0.70455
v 1.62765 0.94000 0.83978
v 1.59141 0.94000 0.70455
v 1.55000 0.74000 0.85000
v 1.55000 0.74000 0.71000
v 1.55000 0.94000 0.85000
v 1.55000 0.94000 0.71000
v 1.47235 0.74000 0.83978
v 1.50859 0.74000 0.70455
v 1.47235 0.94000 0.83978
v 1.50859 0.94000 0.70455
v 1.40000 0.74000 0.80981
v 1.47000 0.74000 0.68856
v 1.40000 0.94000 0.80981
v 1.47000 0.94000 0.68856
v 1.33787 0.74000 0.76213
v 1.43686 0.74000 0.66314
v 1.33787 0.94000 0.76213
v 1.43686 0.94000 0.66314
v 1.29019 0.74000 0.70000
v 1.41144 0.74000 0.63000
v 1.29019 0.94000 0.70000
v 1.41144 0.94000 0.63000
v 1.26022 0.74000 0.62765
v 1.39545 0.74000 0.59141
v 1.26022 0.94000 0.62765
v 1.39545 0.94000 0.59141
v 1.25000 0.74000 0.55000
v 1.39000 0.74000 0.55000
v 1.25000 0.94000 0.55000
v 1.39000 0.94000 0.55000
v 1.26022 0.74000 0.47235
v 1.39545 0.74000 0.50859
v 1.26022 0.94000 0.47235
v 1.39545 0.94000 0.50859
v 1.29019 0.74000 0.40000
v 1.41144 0.74000 0.47000
v 1.29019 0.94000 0.40000
v 1.41144 0.94000 0.47000
v 1.33787 0.74000 0.33787
v 1.43686 0.74000 0.43686
v 1.33787 0.94000 0.33787
v 1.43686 0.94000 0.43686
v 1.40000 0.74000 0.29019
v 1.47000 0.74000 0.41144
v 1.40000 0.94000 0.29019
v 1.47000 0.94000 0.41144
v 1.47235 0.74000 0.26022
v 1.50859 0.74000 0.39545
v 1.47235 0.94000 0.26022
v 1.50859 0.94000 0.39545
v 1.55000 0.74000 0.25000
v 1.55000 0.74000 0.39000
v 1.55000 0.94000 0.25000
v 1.55000 0.94000 0.39000
v 1.62765 0.74000 0.26022
v 1.59141 0.74000 0.39545
v 1.62765 0.94000 0.26022
v 1.59141 0.94000 0.39545
v 1.70000 0.74000 0.29019
v 1.63000 0.74000 0.41144
v 1.70000 0.94000 0.29019
v 1.63000 0.94000 0.41144
v 1.76213 0.74000 0.33787
v 1.66314 0.74000 0.43686
v 1.76213 0.94000 0.33787
v 1.66314 0.94000 0.43686
v 1.80981 0.74000 0.40000
v 1.68856 0.74000 0.47000
v 1.80981 0.94000 0.40000
v 1.68856 0.94000 0.47000
v 1.83978 0.74000 0.47235
v 1.70455 0.74000 0.50859
v 1.83978 0.94000 0.47235
v 1.70455 0.94000 0.50859
v -2.45000 -0.53000 1.04000
v -2.45000 -0.43000 1.04000
v -2.45423 -0.53000 1.08292
v -2.45423 -0.43000 1.08292
v -2.46675 -0.53000 1.12419
v -2.46675 -0.43000 1.12419
v -2.48708 -0.53000 1.16223
v -2.48708 -0.43000 1.16223
v -2.51444 -0.53000 1.19556
v -2.51444 -0.43000 1.19556
v -2.54777 -0.53000 1.22292
v -2.54777 -0.43000 1.22292
v -2.58581 -0.53000 1.24325
v -2.58581 -0.43000 1.24325
v -2.62708 -0.53000 1.25577
v -2.62708 -0.43000 1.25577
v -2.67000 -0.53000 1.26000
v -2.67000 -0.43000 1.26000
v -2.71292 -0.53000 1.25577
v -2.71292 -0.43000 1.25577
v -2.75419 -0.53000 1.24325
v -2.75419 -0.43000 1.24325
v -2.79223 -0.53000 1.22292
v -2.79223 -0.43000 1.22292
v -2.82556 -0.53000 1.19556
v -2.82556 -0.43000 1.19556
v -2.85292 -0.53000 1.16223
v -2.85292 -0.43000 1.16223
v -2.87325 -0.53000 1.12419
v -2.87325 -0.43000 1.12419
v -2.88577 -0.53000 1.08292
v -2.88577 -0.43000 1.08292
v -2.89000 -0.53000 1.04000
v -2.89000 -0.43000 1.04000
v -2.88577 -0.53000 0.99708
v -2.88577 -0.43000 0.99708
v -2.87325 -0.53000 0.95581
v -2.87325 -0.43000 0.95581
v -2.85292 -0.53000 0.91777
v -2.85292 -0.43000 0.91777
v -2.82556 -0.53000 0.88444
v -2.82556 -0.43000 0.88444
v -2.79223 -0.53000 0.85708
v -2.79223 -0.43000 0.85708
v -2.75419 -0.53000 0.83675
v -2.75419 -0.43000 0.83675
v -2.71292 -0.53000 0.82423
v -2.71292 -0.43000 0.82423
v -2.67000 -0.53000 0.82000
v -2.67000 -0.43000 0.82000
v -2.62708 -0.53000 0.82423
v -2.62708 -0.43000 0.82423
v -2.58581 -0.53000 0.83675
v -2.58581 -0.43000 0.83675
v -2.54777 -0.53000 0.85708
v -2.54777 -0.43000 0.85708
v -2.51444 -0.53000 0.88444
v -2.51444 -0.43000 0.88444
v -2.48708 -0.53000 0.91777
v -2.48708 -0.43000 0.91777
v -2.46675 -0.53000 0.95581
v -2.46675 -0.43000 0.95581
v -2.45423 -0.53000 0.99708
v -2.45423 -0.43000 0.99708
v -2.45000 0.43000 1.04000
v -2.45000 0.53000 1.04000
v -2.45423 0.43000 1.08292
v -2.45423 0.53000 1.08292
v -2.46675 0.43000 1.12419
v -2.46675 0.53000 1.12419
v -2.48708 0.43000 1.16223
v -2.48708 0.53000 1.16223
v -2.51444 0.43000 1.19556
v -2.51444 0.53000 1.19556
v -2.54777 0.43000 1.22292
v -2.54777 0.53000 1.22292
v -2.58581 0.43000 1.24325
v -2.58581 0.53000 1.24325
v -2.62708 0.43000 1.25577
v -2.62708 0.53000 1.25577
v -2.67000 0.43000 1.26000
v -2.67000 0.53000 1.26000
v -2.71292 0.43000 1.25577
v -2.71292 0.53000 1.25577
v -2.75419 0.43000 1.24325
v -2.75419 0.53000 1.24325
v -2.79223 0.43000 1.22292
v -2.79223 0.53000 1.22292
v -2.82556 0.43000 1.19556
v -2.82556 0.53000 1.19556
v -2.85292 0.43000 1.16223
v -2.85292 0.53000 1.16223
v -2.87325 0.43000 1.12419
v -2.87325 0.53000 1.12419
v -2.88577 0.43000 1.08292
v -2.88577 0.53000 1.08292
v -2.89000 0.43000 1.04000
v -2.89000 0.53000 1.04000
v -2.88577 0.43000 0.99708
v -2.88577 0.53000 0.99708
v -2.87325 0.43000 0.95581
v -2.87325 0.53000 0.95581
v -2.85292 0.43000 0.91777
v -2.85292 0.53000 0.91777
v -2.82556 0.43000 0.88444
v -2.82556 0.53000 0.88444
v -2.79223 0.43000 0.85708
v -2.79223 0.53000 0.85708
v -2.75419 0.43000 0.83675
v -2.75419 0.53000 0.83675
v -2.71292 0.43000 0.82423
v -2.71292 0.53000 0.82423
v -2.67000 0.43000 0.82000
v -2.67000 0.53000 0.82000
v -2.62708 0.43000 0.82423
v -2.62708 0.53000 0.82423
v -2.58581 0.43000 0.83675
v -2.58581 0.53000 0.83675
v -2.54777 0.43000 0.85708
v -2.54777 0.53000 0.85708
v -2.51444 0.43000 0.88444
v -2.51444 0.53000 0.88444
v -2.48708 0.43000 0.91777
v -2.48708 0.53000 0.91777
v -2.46675 0.43000 0.95581
v -2.46675 0.53000 0.95581
v -2.45423 0.43000 0.99708
v -2.45423 0.53000 0.99708
v -2.72000 -0.05500 0.82000
v -2.55000 -0.05500 0.68000
v -1.85000 -0.05500 0.68000
v -1.70000 -0.05500 0.82000
v -1.85000 -0.05500 0.98000
v -2.55000 -0.05500 0.98000
v -2.72000 0.05500 0.82000
v -2.55000 0.05500 0.68000
v -1.85000 0.05500 0.68000
v -1.70000 0.05500 0.82000
v -1.85000 0.05500 0.98000
v -2.55000 0.05500 0.98000
v -0.45000 -0.69000 0.91000
v -0.43200 -0.69000 0.91000
v -0.43200 0.69000 0.91000
v -0.45000 0.69000 0.91000
v -0.45000 -0.69000 1.48000
v -0.43200 -0.69000 1.48000
v -0.43200 0.69000 1.48000
v -0.45000 0.69000 1.48000
v 0.75000 -0.69000 0.91000
v 0.76800 -0.69000 0.91000
v 0.76800 0.69000 0.91000
v 0.75000 0.69000 0.91000
v 0.75000 -0.69000 1.48000
v 0.76800 -0.69000 1.48000
v 0.76800 0.69000 1.48000
v 0.75000 0.69000 1.48000
v 1.35000 -0.68000 1.72000
v 1.78000 -0.68000 1.72000
v 1.78000 0.68000 1.72000
v 1.35000 0.68000 1.72000
v 1.35000 -0.68000 1.80000
v 1.78000 -0.68000 1.80000
v 1.78000 0.68000 1.80000
v 1.35000 0.68000 1.80000
usemtl WhiteClay
f 1 2 3 4
usemtl WhiteClay
f 5 8 7 6
usemtl WhiteClay
f 1 5 6 2
usemtl WhiteClay
f 2 6 7 3
usemtl WhiteClay
f 3 7 8 4
usemtl WhiteClay
f 5 1 4 8
usemtl WhiteClay
f 9 10 11 12
usemtl WhiteClay
f 13 16 15 14
usemtl WhiteClay
f 9 13 14 10
usemtl WhiteClay
f 10 14 15 11
usemtl WhiteClay
f 11 15 16 12
usemtl WhiteClay
f 13 9 12 16
usemtl WhiteClay
f 17 18 19 20
usemtl WhiteClay
f 21 24 23 22
usemtl WhiteClay
f 17 21 22 18
usemtl WhiteClay
f 18 22 23 19
usemtl WhiteClay
f 19 23 24 20
usemtl WhiteClay
f 21 17 20 24
usemtl WhiteClay
f 25 26 27 28
usemtl WhiteClay
f 29 32 31 30
usemtl WhiteClay
f 25 29 30 26
usemtl WhiteClay
f 26 30 31 27
usemtl WhiteClay
f 27 31 32 28
usemtl WhiteClay
f 29 25 28 32
usemtl WhiteClay
f 33 34 35 36
usemtl WhiteClay
f 37 40 39 38
usemtl WhiteClay
f 33 37 38 34
usemtl WhiteClay
f 34 38 39 35
usemtl WhiteClay
f 35 39 40 36
usemtl WhiteClay
f 37 33 36 40
usemtl WhiteClay
f 41 42 43 44
usemtl WhiteClay
f 45 48 47 46
usemtl WhiteClay
f 41 45 46 42
usemtl WhiteClay
f 42 46 47 43
usemtl WhiteClay
f 43 47 48 44
usemtl WhiteClay
f 45 41 44 48
usemtl WhiteClay
f 49 50 51 52
usemtl WhiteClay
f 53 56 55 54
usemtl WhiteClay
f 49 53 54 50
usemtl WhiteClay
f 50 54 55 51
usemtl WhiteClay
f 51 55 56 52
usemtl WhiteClay
f 53 49 52 56
usemtl WhiteClay
f 57 58 59 60
usemtl WhiteClay
f 61 64 63 62
usemtl WhiteClay
f 57 61 62 58
usemtl WhiteClay
f 58 62 63 59
usemtl WhiteClay
f 59 63 64 60
usemtl WhiteClay
f 61 57 60 64
usemtl WhiteClay
f 65 67 68 66
usemtl WhiteClay
f 67 69 70 68
usemtl WhiteClay
f 69 71 72 70
usemtl WhiteClay
f 71 73 74 72
usemtl WhiteClay
f 73 75 76 74
usemtl WhiteClay
f 75 77 78 76
usemtl WhiteClay
f 77 79 80 78
usemtl WhiteClay
f 79 81 82 80
usemtl WhiteClay
f 81 83 84 82
usemtl WhiteClay
f 83 85 86 84
usemtl WhiteClay
f 85 87 88 86
usemtl WhiteClay
f 87 89 90 88
usemtl WhiteClay
f 89 91 92 90
usemtl WhiteClay
f 91 93 94 92
usemtl WhiteClay
f 93 95 96 94
usemtl WhiteClay
f 95 97 98 96
usemtl WhiteClay
f 97 99 100 98
usemtl WhiteClay
f 99 101 102 100
usemtl WhiteClay
f 101 103 104 102
usemtl WhiteClay
f 103 105 106 104
usemtl WhiteClay
f 105 107 108 106
usemtl WhiteClay
f 107 109 110 108
usemtl WhiteClay
f 109 111 112 110
usemtl WhiteClay
f 111 113 114 112
usemtl WhiteClay
f 113 115 116 114
usemtl WhiteClay
f 115 117 118 116
usemtl WhiteClay
f 117 119 120 118
usemtl WhiteClay
f 119 121 122 120
usemtl WhiteClay
f 121 123 124 122
usemtl WhiteClay
f 123 125 126 124
usemtl WhiteClay
f 125 127 128 126
usemtl WhiteClay
f 127 65 66 128
usemtl WhiteClay
f 127 125 123 121 119 117 115 113 111 109 107 105 103 101 99 97 95 93 91 89 87 85 83 81 79 77 75 73 71 69 67 65
usemtl WhiteClay
f 66 68 70 72 74 76 78 80 82 84 86 88 90 92 94 96 98 100 102 104 106 108 110 112 114 116 118 120 122 124 126 128
usemtl WhiteClay
f 129 133 135 131
usemtl WhiteClay
f 134 130 132 136
usemtl WhiteClay
f 133 134 136 135
usemtl WhiteClay
f 130 129 131 132
usemtl WhiteClay
f 133 137 139 135
usemtl WhiteClay
f 138 134 136 140
usemtl WhiteClay
f 137 138 140 139
usemtl WhiteClay
f 134 133 135 136
usemtl WhiteClay
f 137 141 143 139
usemtl WhiteClay
f 142 138 140 144
usemtl WhiteClay
f 141 142 144 143
usemtl WhiteClay
f 138 137 139 140
usemtl WhiteClay
f 141 145 147 143
usemtl WhiteClay
f 146 142 144 148
usemtl WhiteClay
f 145 146 148 147
usemtl WhiteClay
f 142 141 143 144
usemtl WhiteClay
f 145 149 151 147
usemtl WhiteClay
f 150 146 148 152
usemtl WhiteClay
f 149 150 152 151
usemtl WhiteClay
f 146 145 147 148
usemtl WhiteClay
f 149 153 155 151
usemtl WhiteClay
f 154 150 152 156
usemtl WhiteClay
f 153 154 156 155
usemtl WhiteClay
f 150 149 151 152
usemtl WhiteClay
f 153 157 159 155
usemtl WhiteClay
f 158 154 156 160
usemtl WhiteClay
f 157 158 160 159
usemtl WhiteClay
f 154 153 155 156
usemtl WhiteClay
f 157 161 163 159
usemtl WhiteClay
f 162 158 160 164
usemtl WhiteClay
f 161 162 164 163
usemtl WhiteClay
f 158 157 159 160
usemtl WhiteClay
f 161 165 167 163
usemtl WhiteClay
f 166 162 164 168
usemtl WhiteClay
f 165 166 168 167
usemtl WhiteClay
f 162 161 163 164
usemtl WhiteClay
f 165 169 171 167
usemtl WhiteClay
f 170 166 168 172
usemtl WhiteClay
f 169 170 172 171
usemtl WhiteClay
f 166 165 167 168
usemtl WhiteClay
f 169 173 175 171
usemtl WhiteClay
f 174 170 172 176
usemtl WhiteClay
f 173 174 176 175
usemtl WhiteClay
f 170 169 171 172
usemtl WhiteClay
f 173 177 179 175
usemtl WhiteClay
f 178 174 176 180
usemtl WhiteClay
f 177 178 180 179
usemtl WhiteClay
f 174 173 175 176
usemtl WhiteClay
f 177 181 183 179
usemtl WhiteClay
f 182 178 180 184
usemtl WhiteClay
f 181 182 184 183
usemtl WhiteClay
f 178 177 179 180
usemtl WhiteClay
f 181 185 187 183
usemtl WhiteClay
f 186 182 184 188
usemtl WhiteClay
f 185 186 188 187
usemtl WhiteClay
f 182 181 183 184
usemtl WhiteClay
f 185 189 191 187
usemtl WhiteClay
f 190 186 188 192
usemtl WhiteClay
f 189 190 192 191
usemtl WhiteClay
f 186 185 187 188
usemtl WhiteClay
f 189 193 195 191
usemtl WhiteClay
f 194 190 192 196
usemtl WhiteClay
f 193 194 196 195
usemtl WhiteClay
f 190 189 191 192
usemtl WhiteClay
f 193 197 199 195
usemtl WhiteClay
f 198 194 196 200
usemtl WhiteClay
f 197 198 200 199
usemtl WhiteClay
f 194 193 195 196
usemtl WhiteClay
f 197 201 203 199
usemtl WhiteClay
f 202 198 200 204
usemtl WhiteClay
f 201 202 204 203
usemtl WhiteClay
f 198 197 199 200
usemtl WhiteClay
f 201 205 207 203
usemtl WhiteClay
f 206 202 204 208
usemtl WhiteClay
f 205 206 208 207
usemtl WhiteClay
f 202 201 203 204
usemtl WhiteClay
f 205 209 211 207
usemtl WhiteClay
f 210 206 208 212
usemtl WhiteClay
f 209 210 212 211
usemtl WhiteClay
f 206 205 207 208
usemtl WhiteClay
f 209 213 215 211
usemtl WhiteClay
f 214 210 212 216
usemtl WhiteClay
f 213 214 216 215
usemtl WhiteClay
f 210 209 211 212
usemtl WhiteClay
f 213 217 219 215
usemtl WhiteClay
f 218 214 216 220
usemtl WhiteClay
f 217 218 220 219
usemtl WhiteClay
f 214 213 215 216
usemtl WhiteClay
f 217 221 223 219
usemtl WhiteClay
f 222 218 220 224
usemtl WhiteClay
f 221 222 224 223
usemtl WhiteClay
f 218 217 219 220
usemtl WhiteClay
f 221 129 131 223
usemtl WhiteClay
f 130 222 224 132
usemtl WhiteClay
f 129 130 132 131
usemtl WhiteClay
f 222 221 223 224
usemtl WhiteClay
f 225 227 228 226
usemtl WhiteClay
f 227 229 230 228
usemtl WhiteClay
f 229 231 232 230
usemtl WhiteClay
f 231 233 234 232
usemtl WhiteClay
f 233 235 236 234
usemtl WhiteClay
f 235 237 238 236
usemtl WhiteClay
f 237 239 240 238
usemtl WhiteClay
f 239 241 242 240
usemtl WhiteClay
f 241 243 244 242
usemtl WhiteClay
f 243 245 246 244
usemtl WhiteClay
f 245 247 248 246
usemtl WhiteClay
f 247 249 250 248
usemtl WhiteClay
f 249 251 252 250
usemtl WhiteClay
f 251 253 254 252
usemtl WhiteClay
f 253 255 256 254
usemtl WhiteClay
f 255 257 258 256
usemtl WhiteClay
f 257 259 260 258
usemtl WhiteClay
f 259 261 262 260
usemtl WhiteClay
f 261 263 264 262
usemtl WhiteClay
f 263 265 266 264
usemtl WhiteClay
f 265 267 268 266
usemtl WhiteClay
f 267 269 270 268
usemtl WhiteClay
f 269 271 272 270
usemtl WhiteClay
f 271 273 274 272
usemtl WhiteClay
f 273 275 276 274
usemtl WhiteClay
f 275 277 278 276
usemtl WhiteClay
f 277 279 280 278
usemtl WhiteClay
f 279 281 282 280
usemtl WhiteClay
f 281 283 284 282
usemtl WhiteClay
f 283 285 286 284
usemtl WhiteClay
f 285 287 288 286
usemtl WhiteClay
f 287 225 226 288
usemtl WhiteClay
f 287 285 283 281 279 277 275 273 271 269 267 265 263 261 259 257 255 253 251 249 247 245 243 241 239 237 235 233 231 229 227 225
usemtl WhiteClay
f 226 228 230 232 234 236 238 240 242 244 246 248 250 252 254 256 258 260 262 264 266 268 270 272 274 276 278 280 282 284 286 288
usemtl WhiteClay
f 289 293 295 291
usemtl WhiteClay
f 294 290 292 296
usemtl WhiteClay
f 293 294 296 295
usemtl WhiteClay
f 290 289 291 292
usemtl WhiteClay
f 293 297 299 295
usemtl WhiteClay
f 298 294 296 300
usemtl WhiteClay
f 297 298 300 299
usemtl WhiteClay
f 294 293 295 296
usemtl WhiteClay
f 297 301 303 299
usemtl WhiteClay
f 302 298 300 304
usemtl WhiteClay
f 301 302 304 303
usemtl WhiteClay
f 298 297 299 300
usemtl WhiteClay
f 301 305 307 303
usemtl WhiteClay
f 306 302 304 308
usemtl WhiteClay
f 305 306 308 307
usemtl WhiteClay
f 302 301 303 304
usemtl WhiteClay
f 305 309 311 307
usemtl WhiteClay
f 310 306 308 312
usemtl WhiteClay
f 309 310 312 311
usemtl WhiteClay
f 306 305 307 308
usemtl WhiteClay
f 309 313 315 311
usemtl WhiteClay
f 314 310 312 316
usemtl WhiteClay
f 313 314 316 315
usemtl WhiteClay
f 310 309 311 312
usemtl WhiteClay
f 313 317 319 315
usemtl WhiteClay
f 318 314 316 320
usemtl WhiteClay
f 317 318 320 319
usemtl WhiteClay
f 314 313 315 316
usemtl WhiteClay
f 317 321 323 319
usemtl WhiteClay
f 322 318 320 324
usemtl WhiteClay
f 321 322 324 323
usemtl WhiteClay
f 318 317 319 320
usemtl WhiteClay
f 321 325 327 323
usemtl WhiteClay
f 326 322 324 328
usemtl WhiteClay
f 325 326 328 327
usemtl WhiteClay
f 322 321 323 324
usemtl WhiteClay
f 325 329 331 327
usemtl WhiteClay
f 330 326 328 332
usemtl WhiteClay
f 329 330 332 331
usemtl WhiteClay
f 326 325 327 328
usemtl WhiteClay
f 329 333 335 331
usemtl WhiteClay
f 334 330 332 336
usemtl WhiteClay
f 333 334 336 335
usemtl WhiteClay
f 330 329 331 332
usemtl WhiteClay
f 333 337 339 335
usemtl WhiteClay
f 338 334 336 340
usemtl WhiteClay
f 337 338 340 339
usemtl WhiteClay
f 334 333 335 336
usemtl WhiteClay
f 337 341 343 339
usemtl WhiteClay
f 342 338 340 344
usemtl WhiteClay
f 341 342 344 343
usemtl WhiteClay
f 338 337 339 340
usemtl WhiteClay
f 341 345 347 343
usemtl WhiteClay
f 346 342 344 348
usemtl WhiteClay
f 345 346 348 347
usemtl WhiteClay
f 342 341 343 344
usemtl WhiteClay
f 345 349 351 347
usemtl WhiteClay
f 350 346 348 352
usemtl WhiteClay
f 349 350 352 351
usemtl WhiteClay
f 346 345 347 348
usemtl WhiteClay
f 349 353 355 351
usemtl WhiteClay
f 354 350 352 356
usemtl WhiteClay
f 353 354 356 355
usemtl WhiteClay
f 350 349 351 352
usemtl WhiteClay
f 353 357 359 355
usemtl WhiteClay
f 358 354 356 360
usemtl WhiteClay
f 357 358 360 359
usemtl WhiteClay
f 354 353 355 356
usemtl WhiteClay
f 357 361 363 359
usemtl WhiteClay
f 362 358 360 364
usemtl WhiteClay
f 361 362 364 363
usemtl WhiteClay
f 358 357 359 360
usemtl WhiteClay
f 361 365 367 363
usemtl WhiteClay
f 366 362 364 368
usemtl WhiteClay
f 365 366 368 367
usemtl WhiteClay
f 362 361 363 364
usemtl WhiteClay
f 365 369 371 367
usemtl WhiteClay
f 370 366 368 372
usemtl WhiteClay
f 369 370 372 371
usemtl WhiteClay
f 366 365 367 368
usemtl WhiteClay
f 369 373 375 371
usemtl WhiteClay
f 374 370 372 376
usemtl WhiteClay
f 373 374 376 375
usemtl WhiteClay
f 370 369 371 372
usemtl WhiteClay
f 373 377 379 375
usemtl WhiteClay
f 378 374 376 380
usemtl WhiteClay
f 377 378 380 379
usemtl WhiteClay
f 374 373 375 376
usemtl WhiteClay
f 377 381 383 379
usemtl WhiteClay
f 382 378 380 384
usemtl WhiteClay
f 381 382 384 383
usemtl WhiteClay
f 378 377 379 380
usemtl WhiteClay
f 381 289 291 383
usemtl WhiteClay
f 290 382 384 292
usemtl WhiteClay
f 289 290 292 291
usemtl WhiteClay
f 382 381 383 384
usemtl WhiteClay
f 385 387 388 386
usemtl WhiteClay
f 387 389 390 388
usemtl WhiteClay
f 389 391 392 390
usemtl WhiteClay
f 391 393 394 392
usemtl WhiteClay
f 393 395 396 394
usemtl WhiteClay
f 395 397 398 396
usemtl WhiteClay
f 397 399 400 398
usemtl WhiteClay
f 399 401 402 400
usemtl WhiteClay
f 401 403 404 402
usemtl WhiteClay
f 403 405 406 404
usemtl WhiteClay
f 405 407 408 406
usemtl WhiteClay
f 407 409 410 408
usemtl WhiteClay
f 409 411 412 410
usemtl WhiteClay
f 411 413 414 412
usemtl WhiteClay
f 413 415 416 414
usemtl WhiteClay
f 415 417 418 416
usemtl WhiteClay
f 417 419 420 418
usemtl WhiteClay
f 419 421 422 420
usemtl WhiteClay
f 421 423 424 422
usemtl WhiteClay
f 423 425 426 424
usemtl WhiteClay
f 425 427 428 426
usemtl WhiteClay
f 427 429 430 428
usemtl WhiteClay
f 429 431 432 430
usemtl WhiteClay
f 431 433 434 432
usemtl WhiteClay
f 433 435 436 434
usemtl WhiteClay
f 435 437 438 436
usemtl WhiteClay
f 437 439 440 438
usemtl WhiteClay
f 439 441 442 440
usemtl WhiteClay
f 441 443 444 442
usemtl WhiteClay
f 443 445 446 444
usemtl WhiteClay
f 445 447 448 446
usemtl WhiteClay
f 447 385 386 448
usemtl WhiteClay
f 447 445 443 441 439 437 435 433 431 429 427 425 423 421 419 417 415 413 411 409 407 405 403 401 399 397 395 393 391 389 387 385
usemtl WhiteClay
f 386 388 390 392 394 396 398 400 402 404 406 408 410 412 414 416 418 420 422 424 426 428 430 432 434 436 438 440 442 444 446 448
usemtl WhiteClay
f 449 453 455 451
usemtl WhiteClay
f 454 450 452 456
usemtl WhiteClay
f 453 454 456 455
usemtl WhiteClay
f 450 449 451 452
usemtl WhiteClay
f 453 457 459 455
usemtl WhiteClay
f 458 454 456 460
usemtl WhiteClay
f 457 458 460 459
usemtl WhiteClay
f 454 453 455 456
usemtl WhiteClay
f 457 461 463 459
usemtl WhiteClay
f 462 458 460 464
usemtl WhiteClay
f 461 462 464 463
usemtl WhiteClay
f 458 457 459 460
usemtl WhiteClay
f 461 465 467 463
usemtl WhiteClay
f 466 462 464 468
usemtl WhiteClay
f 465 466 468 467
usemtl WhiteClay
f 462 461 463 464
usemtl WhiteClay
f 465 469 471 467
usemtl WhiteClay
f 470 466 468 472
usemtl WhiteClay
f 469 470 472 471
usemtl WhiteClay
f 466 465 467 468
usemtl WhiteClay
f 469 473 475 471
usemtl WhiteClay
f 474 470 472 476
usemtl WhiteClay
f 473 474 476 475
usemtl WhiteClay
f 470 469 471 472
usemtl WhiteClay
f 473 477 479 475
usemtl WhiteClay
f 478 474 476 480
usemtl WhiteClay
f 477 478 480 479
usemtl WhiteClay
f 474 473 475 476
usemtl WhiteClay
f 477 481 483 479
usemtl WhiteClay
f 482 478 480 484
usemtl WhiteClay
f 481 482 484 483
usemtl WhiteClay
f 478 477 479 480
usemtl WhiteClay
f 481 485 487 483
usemtl WhiteClay
f 486 482 484 488
usemtl WhiteClay
f 485 486 488 487
usemtl WhiteClay
f 482 481 483 484
usemtl WhiteClay
f 485 489 491 487
usemtl WhiteClay
f 490 486 488 492
usemtl WhiteClay
f 489 490 492 491
usemtl WhiteClay
f 486 485 487 488
usemtl WhiteClay
f 489 493 495 491
usemtl WhiteClay
f 494 490 492 496
usemtl WhiteClay
f 493 494 496 495
usemtl WhiteClay
f 490 489 491 492
usemtl WhiteClay
f 493 497 499 495
usemtl WhiteClay
f 498 494 496 500
usemtl WhiteClay
f 497 498 500 499
usemtl WhiteClay
f 494 493 495 496
usemtl WhiteClay
f 497 501 503 499
usemtl WhiteClay
f 502 498 500 504
usemtl WhiteClay
f 501 502 504 503
usemtl WhiteClay
f 498 497 499 500
usemtl WhiteClay
f 501 505 507 503
usemtl WhiteClay
f 506 502 504 508
usemtl WhiteClay
f 505 506 508 507
usemtl WhiteClay
f 502 501 503 504
usemtl WhiteClay
f 505 509 511 507
usemtl WhiteClay
f 510 506 508 512
usemtl WhiteClay
f 509 510 512 511
usemtl WhiteClay
f 506 505 507 508
usemtl WhiteClay
f 509 513 515 511
usemtl WhiteClay
f 514 510 512 516
usemtl WhiteClay
f 513 514 516 515
usemtl WhiteClay
f 510 509 511 512
usemtl WhiteClay
f 513 517 519 515
usemtl WhiteClay
f 518 514 516 520
usemtl WhiteClay
f 517 518 520 519
usemtl WhiteClay
f 514 513 515 516
usemtl WhiteClay
f 517 521 523 519
usemtl WhiteClay
f 522 518 520 524
usemtl WhiteClay
f 521 522 524 523
usemtl WhiteClay
f 518 517 519 520
usemtl WhiteClay
f 521 525 527 523
usemtl WhiteClay
f 526 522 524 528
usemtl WhiteClay
f 525 526 528 527
usemtl WhiteClay
f 522 521 523 524
usemtl WhiteClay
f 525 529 531 527
usemtl WhiteClay
f 530 526 528 532
usemtl WhiteClay
f 529 530 532 531
usemtl WhiteClay
f 526 525 527 528
usemtl WhiteClay
f 529 533 535 531
usemtl WhiteClay
f 534 530 532 536
usemtl WhiteClay
f 533 534 536 535
usemtl WhiteClay
f 530 529 531 532
usemtl WhiteClay
f 533 537 539 535
usemtl WhiteClay
f 538 534 536 540
usemtl WhiteClay
f 537 538 540 539
usemtl WhiteClay
f 534 533 535 536
usemtl WhiteClay
f 537 541 543 539
usemtl WhiteClay
f 542 538 540 544
usemtl WhiteClay
f 541 542 544 543
usemtl WhiteClay
f 538 537 539 540
usemtl WhiteClay
f 541 449 451 543
usemtl WhiteClay
f 450 542 544 452
usemtl WhiteClay
f 449 450 452 451
usemtl WhiteClay
f 542 541 543 544
usemtl WhiteClay
f 545 547 548 546
usemtl WhiteClay
f 547 549 550 548
usemtl WhiteClay
f 549 551 552 550
usemtl WhiteClay
f 551 553 554 552
usemtl WhiteClay
f 553 555 556 554
usemtl WhiteClay
f 555 557 558 556
usemtl WhiteClay
f 557 559 560 558
usemtl WhiteClay
f 559 561 562 560
usemtl WhiteClay
f 561 563 564 562
usemtl WhiteClay
f 563 565 566 564
usemtl WhiteClay
f 565 567 568 566
usemtl WhiteClay
f 567 569 570 568
usemtl WhiteClay
f 569 571 572 570
usemtl WhiteClay
f 571 573 574 572
usemtl WhiteClay
f 573 575 576 574
usemtl WhiteClay
f 575 577 578 576
usemtl WhiteClay
f 577 579 580 578
usemtl WhiteClay
f 579 581 582 580
usemtl WhiteClay
f 581 583 584 582
usemtl WhiteClay
f 583 585 586 584
usemtl WhiteClay
f 585 587 588 586
usemtl WhiteClay
f 587 589 590 588
usemtl WhiteClay
f 589 591 592 590
usemtl WhiteClay
f 591 593 594 592
usemtl WhiteClay
f 593 595 596 594
usemtl WhiteClay
f 595 597 598 596
usemtl WhiteClay
f 597 599 600 598
usemtl WhiteClay
f 599 601 602 600
usemtl WhiteClay
f 601 603 604 602
usemtl WhiteClay
f 603 605 606 604
usemtl WhiteClay
f 605 607 608 606
usemtl WhiteClay
f 607 545 546 608
usemtl WhiteClay
f 607 605 603 601 599 597 595 593 591 589 587 585 583 581 579 577 575 573 571 569 567 565 563 561 559 557 555 553 551 549 547 545
usemtl WhiteClay
f 546 548 550 552 554 556 558 560 562 564 566 568 570 572 574 576 578 580 582 584 586 588 590 592 594 596 598 600 602 604 606 608
usemtl WhiteClay
f 609 613 615 611
usemtl WhiteClay
f 614 610 612 616
usemtl WhiteClay
f 613 614 616 615
usemtl WhiteClay
f 610 609 611 612
usemtl WhiteClay
f 613 617 619 615
usemtl WhiteClay
f 618 614 616 620
usemtl WhiteClay
f 617 618 620 619
usemtl WhiteClay
f 614 613 615 616
usemtl WhiteClay
f 617 621 623 619
usemtl WhiteClay
f 622 618 620 624
usemtl WhiteClay
f 621 622 624 623
usemtl WhiteClay
f 618 617 619 620
usemtl WhiteClay
f 621 625 627 623
usemtl WhiteClay
f 626 622 624 628
usemtl WhiteClay
f 625 626 628 627
usemtl WhiteClay
f 622 621 623 624
usemtl WhiteClay
f 625 629 631 627
usemtl WhiteClay
f 630 626 628 632
usemtl WhiteClay
f 629 630 632 631
usemtl WhiteClay
f 626 625 627 628
usemtl WhiteClay
f 629 633 635 631
usemtl WhiteClay
f 634 630 632 636
usemtl WhiteClay
f 633 634 636 635
usemtl WhiteClay
f 630 629 631 632
usemtl WhiteClay
f 633 637 639 635
usemtl WhiteClay
f 638 634 636 640
usemtl WhiteClay
f 637 638 640 639
usemtl WhiteClay
f 634 633 635 636
usemtl WhiteClay
f 637 641 643 639
usemtl WhiteClay
f 642 638 640 644
usemtl WhiteClay
f 641 642 644 643
usemtl WhiteClay
f 638 637 639 640
usemtl WhiteClay
f 641 645 647 643
usemtl WhiteClay
f 646 642 644 648
usemtl WhiteClay
f 645 646 648 647
usemtl WhiteClay
f 642 641 643 644
usemtl WhiteClay
f 645 649 651 647
usemtl WhiteClay
f 650 646 648 652
usemtl WhiteClay
f 649 650 652 651
usemtl WhiteClay
f 646 645 647 648
usemtl WhiteClay
f 649 653 655 651
usemtl WhiteClay
f 654 650 652 656
usemtl WhiteClay
f 653 654 656 655
usemtl WhiteClay
f 650 649 651 652
usemtl WhiteClay
f 653 657 659 655
usemtl WhiteClay
f 658 654 656 660
usemtl WhiteClay
f 657 658 660 659
usemtl WhiteClay
f 654 653 655 656
usemtl WhiteClay
f 657 661 663 659
usemtl WhiteClay
f 662 658 660 664
usemtl WhiteClay
f 661 662 664 663
usemtl WhiteClay
f 658 657 659 660
usemtl WhiteClay
f 661 665 667 663
usemtl WhiteClay
f 666 662 664 668
usemtl WhiteClay
f 665 666 668 667
usemtl WhiteClay
f 662 661 663 664
usemtl WhiteClay
f 665 669 671 667
usemtl WhiteClay
f 670 666 668 672
usemtl WhiteClay
f 669 670 672 671
usemtl WhiteClay
f 666 665 667 668
usemtl WhiteClay
f 669 673 675 671
usemtl WhiteClay
f 674 670 672 676
usemtl WhiteClay
f 673 674 676 675
usemtl WhiteClay
f 670 669 671 672
usemtl WhiteClay
f 673 677 679 675
usemtl WhiteClay
f 678 674 676 680
usemtl WhiteClay
f 677 678 680 679
usemtl WhiteClay
f 674 673 675 676
usemtl WhiteClay
f 677 681 683 679
usemtl WhiteClay
f 682 678 680 684
usemtl WhiteClay
f 681 682 684 683
usemtl WhiteClay
f 678 677 679 680
usemtl WhiteClay
f 681 685 687 683
usemtl WhiteClay
f 686 682 684 688
usemtl WhiteClay
f 685 686 688 687
usemtl WhiteClay
f 682 681 683 684
usemtl WhiteClay
f 685 689 691 687
usemtl WhiteClay
f 690 686 688 692
usemtl WhiteClay
f 689 690 692 691
usemtl WhiteClay
f 686 685 687 688
usemtl WhiteClay
f 689 693 695 691
usemtl WhiteClay
f 694 690 692 696
usemtl WhiteClay
f 693 694 696 695
usemtl WhiteClay
f 690 689 691 692
usemtl WhiteClay
f 693 697 699 695
usemtl WhiteClay
f 698 694 696 700
usemtl WhiteClay
f 697 698 700 699
usemtl WhiteClay
f 694 693 695 696
usemtl WhiteClay
f 697 701 703 699
usemtl WhiteClay
f 702 698 700 704
usemtl WhiteClay
f 701 702 704 703
usemtl WhiteClay
f 698 697 699 700
usemtl WhiteClay
f 701 609 611 703
usemtl WhiteClay
f 610 702 704 612
usemtl WhiteClay
f 609 610 612 611
usemtl WhiteClay
f 702 701 703 704
usemtl WhiteClay
f 705 707 708 706
usemtl WhiteClay
f 707 709 710 708
usemtl WhiteClay
f 709 711 712 710
usemtl WhiteClay
f 711 713 714 712
usemtl WhiteClay
f 713 715 716 714
usemtl WhiteClay
f 715 717 718 716
usemtl WhiteClay
f 717 719 720 718
usemtl WhiteClay
f 719 721 722 720
usemtl WhiteClay
f 721 723 724 722
usemtl WhiteClay
f 723 725 726 724
usemtl WhiteClay
f 725 727 728 726
usemtl WhiteClay
f 727 729 730 728
usemtl WhiteClay
f 729 731 732 730
usemtl WhiteClay
f 731 733 734 732
usemtl WhiteClay
f 733 735 736 734
usemtl WhiteClay
f 735 737 738 736
usemtl WhiteClay
f 737 739 740 738
usemtl WhiteClay
f 739 741 742 740
usemtl WhiteClay
f 741 743 744 742
usemtl WhiteClay
f 743 745 746 744
usemtl WhiteClay
f 745 747 748 746
usemtl WhiteClay
f 747 749 750 748
usemtl WhiteClay
f 749 751 752 750
usemtl WhiteClay
f 751 753 754 752
usemtl WhiteClay
f 753 755 756 754
usemtl WhiteClay
f 755 757 758 756
usemtl WhiteClay
f 757 759 760 758
usemtl WhiteClay
f 759 761 762 760
usemtl WhiteClay
f 761 763 764 762
usemtl WhiteClay
f 763 765 766 764
usemtl WhiteClay
f 765 767 768 766
usemtl WhiteClay
f 767 705 706 768
usemtl WhiteClay
f 767 765 763 761 759 757 755 753 751 749 747 745 743 741 739 737 735 733 731 729 727 725 723 721 719 717 715 713 711 709 707 705
usemtl WhiteClay
f 706 708 710 712 714 716 718 720 722 724 726 728 730 732 734 736 738 740 742 744 746 748 750 752 754 756 758 760 762 764 766 768
usemtl WhiteClay
f 769 771 772 770
usemtl WhiteClay
f 771 773 774 772
usemtl WhiteClay
f 773 775 776 774
usemtl WhiteClay
f 775 777 778 776
usemtl WhiteClay
f 777 779 780 778
usemtl WhiteClay
f 779 781 782 780
usemtl WhiteClay
f 781 783 784 782
usemtl WhiteClay
f 783 785 786 784
usemtl WhiteClay
f 785 787 788 786
usemtl WhiteClay
f 787 789 790 788
usemtl WhiteClay
f 789 791 792 790
usemtl WhiteClay
f 791 793 794 792
usemtl WhiteClay
f 793 795 796 794
usemtl WhiteClay
f 795 797 798 796
usemtl WhiteClay
f 797 799 800 798
usemtl WhiteClay
f 799 801 802 800
usemtl WhiteClay
f 801 803 804 802
usemtl WhiteClay
f 803 805 806 804
usemtl WhiteClay
f 805 807 808 806
usemtl WhiteClay
f 807 809 810 808
usemtl WhiteClay
f 809 811 812 810
usemtl WhiteClay
f 811 813 814 812
usemtl WhiteClay
f 813 815 816 814
usemtl WhiteClay
f 815 817 818 816
usemtl WhiteClay
f 817 819 820 818
usemtl WhiteClay
f 819 821 822 820
usemtl WhiteClay
f 821 823 824 822
usemtl WhiteClay
f 823 825 826 824
usemtl WhiteClay
f 825 827 828 826
usemtl WhiteClay
f 827 829 830 828
usemtl WhiteClay
f 829 831 832 830
usemtl WhiteClay
f 831 769 770 832
usemtl WhiteClay
f 831 829 827 825 823 821 819 817 815 813 811 809 807 805 803 801 799 797 795 793 791 789 787 785 783 781 779 777 775 773 771 769
usemtl WhiteClay
f 770 772 774 776 778 780 782 784 786 788 790 792 794 796 798 800 802 804 806 808 810 812 814 816 818 820 822 824 826 828 830 832
usemtl WhiteClay
f 833 834 835 836 837 838
usemtl WhiteClay
f 844 843 842 841 840 839
usemtl WhiteClay
f 833 834 840 839
usemtl WhiteClay
f 834 835 841 840
usemtl WhiteClay
f 835 836 842 841
usemtl WhiteClay
f 836 837 843 842
usemtl WhiteClay
f 837 838 844 843
usemtl WhiteClay
f 838 833 839 844
usemtl WhiteClay
f 845 846 847 848
usemtl WhiteClay
f 849 852 851 850
usemtl WhiteClay
f 845 849 850 846
usemtl WhiteClay
f 846 850 851 847
usemtl WhiteClay
f 847 851 852 848
usemtl WhiteClay
f 849 845 848 852
usemtl WhiteClay
f 853 854 855 856
usemtl WhiteClay
f 857 860 859 858
usemtl WhiteClay
f 853 857 858 854
usemtl WhiteClay
f 854 858 859 855
usemtl WhiteClay
f 855 859 860 856
usemtl WhiteClay
f 857 853 856 860
usemtl WhiteClay
f 861 862 863 864
usemtl WhiteClay
f 865 868 867 866
usemtl WhiteClay
f 861 865 866 862
usemtl WhiteClay
f 862 866 867 863
usemtl WhiteClay
f 863 867 868 864
usemtl WhiteClay
f 865 861 864 868
